<?xml version="1.0" standalone="no"?>
<!DOCTYPE svg PUBLIC "-//W3C//DTD SVG 20010904//EN"
 "http://www.w3.org/TR/2001/REC-SVG-20010904/DTD/svg10.dtd">
<svg version="1.0" xmlns="http://www.w3.org/2000/svg"
 width="1000.000000pt" height="1000.000000pt" viewBox="0 0 1000.000000 1000.000000"
 preserveAspectRatio="xMidYMid meet">
<metadata>
Created by potrace 1.14, written by Peter Selinger 2001-2017
</metadata>
<g transform="translate(0.000000,1000.000000) scale(0.100000,-0.100000)"
fill="#000000" stroke="none">
<path d="M0 5000 l0 -5000 5000 0 5000 0 0 5000 0 5000 -5000 0 -5000 0 0
-5000z m5211 3192 c47 -16 621 -344 1488 -848 201 -116 300 -230 356 -406 l23
-73 3 -940 c3 -887 3 -943 -15 -1000 -32 -107 -95 -214 -171 -292 -63 -66 -99
-89 -380 -251 -170 -98 -448 -258 -616 -355 -169 -97 -310 -177 -314 -177 -5
0 10 13 31 29 227 169 362 441 364 728 0 126 -47 342 -72 327 -6 -4 -8 -2 -4
4 3 6 1 14 -5 17 -5 4 -8 13 -5 20 12 31 -66 142 -418 593 -207 266 -376 487
-376 491 0 3 149 155 331 336 184 184 340 348 352 370 29 56 30 153 1 191 -32
44 -68 66 -117 71 -94 11 -81 21 -660 -556 l-537 -536 2 1045 3 1044 110 64
c210 122 249 133 435 128 105 -2 148 -8 191 -24z m-1089 -3329 c50 -76 157
-104 243 -64 48 22 69 44 90 94 12 29 15 84 15 289 l0 253 180 180 c98 98 181
177 183 175 2 -3 35 -46 73 -95 39 -50 200 -257 358 -460 315 -404 328 -420
369 -441 34 -18 157 -28 157 -13 0 6 5 7 11 3 8 -4 3 -12 -13 -20 -14 -7 -28
-21 -32 -30 -3 -9 -13 -14 -21 -11 -9 4 -12 1 -8 -9 3 -7 0 -14 -5 -14 -6 0
-25 -25 -42 -55 -17 -30 -35 -55 -40 -55 -5 0 -14 -16 -20 -35 -6 -19 -15 -33
-20 -30 -5 3 -12 -5 -16 -17 -4 -13 -33 -59 -65 -102 -33 -43 -59 -85 -59 -91
0 -7 -7 -18 -15 -25 -19 -15 -95 -129 -95 -141 0 -5 -11 -19 -25 -31 -14 -12
-25 -28 -25 -35 0 -7 -4 -13 -8 -13 -5 0 -21 -22 -36 -50 -15 -27 -31 -52 -37
-55 -10 -7 -65 -92 -88 -137 -8 -16 -18 -28 -22 -28 -4 0 -21 -21 -37 -47 -16
-27 -46 -64 -66 -84 -26 -26 -34 -39 -25 -45 8 -5 10 -3 4 5 -6 10 -3 11 14 2
11 -7 21 -13 21 -14 0 -8 -133 6 -185 19 -81 19 -118 39 -675 359 -267 153
-597 343 -735 422 -221 127 -258 152 -320 216 -47 48 -84 99 -112 152 -83 162
-77 79 -81 1090 -2 604 1 923 8 969 21 136 116 310 215 393 25 21 249 156 498
300 l452 262 5 -1448 5 -1447 27 -41z m905 -1206 c0 -7 -9 -14 -20 -14 -19 -2
-19 -2 -1 12 11 8 19 15 20 15 0 0 1 -6 1 -13z m-2984 -609 c15 -18 17 -43 17
-207 l0 -186 208 206 c114 114 215 209 225 212 45 16 86 -28 73 -78 -3 -12
-78 -96 -166 -185 l-159 -163 21 -31 c12 -17 84 -114 159 -216 76 -102 140
-197 144 -211 13 -50 -57 -100 -101 -71 -7 4 -78 97 -159 207 -81 110 -151
204 -156 210 -6 5 -24 -6 -49 -30 l-40 -39 0 -158 c0 -145 -2 -160 -20 -178
-26 -26 -74 -26 -100 0 -19 19 -20 33 -20 463 0 410 1 445 18 459 36 32 74 31
105 -4z m1571 21 c37 -17 46 -58 46 -216 l0 -144 30 21 c167 119 388 64 477
-118 25 -51 28 -68 28 -157 0 -88 -3 -107 -27 -157 -57 -123 -170 -192 -313
-192 -102 0 -178 32 -247 105 -87 92 -92 117 -96 468 -2 168 -1 319 3 338 4
22 15 38 33 48 33 18 35 18 66 4z m1924 -5 c166 -34 288 -138 345 -292 29 -80
35 -239 12 -318 -26 -91 -62 -153 -124 -213 -106 -105 -189 -131 -420 -131
-155 0 -166 1 -188 22 l-23 21 0 434 c0 288 4 441 11 454 6 11 20 24 32 29 38
15 271 11 355 -6z m1835 -16 c15 -18 17 -52 17 -387 0 -413 -2 -404 71 -414
52 -7 70 -24 71 -67 2 -51 -32 -73 -103 -68 -69 5 -118 38 -152 101 -22 41
-22 50 -25 430 l-3 387 26 26 c30 30 68 27 98 -8z m-330 -8 c33 -26 43 -70 23
-108 -29 -57 -107 -65 -146 -15 -29 37 -26 79 9 114 35 35 77 38 114 9z
m-2249 -267 c104 -33 186 -157 189 -286 3 -88 7 -87 -275 -87 -159 0 -238 -3
-238 -10 0 -17 30 -73 54 -98 62 -69 182 -86 278 -39 63 31 94 34 120 10 41
-36 14 -84 -69 -123 -183 -86 -399 -17 -483 155 -22 43 -25 64 -25 155 0 95 3
111 28 162 75 154 244 218 421 161z m1734 -5 c68 -25 145 -100 179 -175 26
-55 27 -68 31 -243 4 -178 3 -186 -18 -213 -40 -50 -120 -27 -120 34 l0 29
-45 -34 c-59 -46 -106 -60 -190 -60 -94 0 -159 29 -224 100 -67 73 -95 157
-89 263 6 92 30 152 89 216 98 106 241 137 387 83z m-3741 0 c22 -21 23 -26
23 -213 0 -178 1 -194 23 -235 60 -119 260 -119 322 0 12 23 15 71 15 230 0
187 1 201 20 220 11 11 33 20 50 20 17 0 39 -9 50 -20 19 -19 20 -33 20 -320
0 -287 -1 -301 -20 -320 -11 -11 -33 -20 -50 -20 -28 0 -70 29 -70 48 0 5 -28
-5 -62 -22 -55 -27 -72 -31 -143 -30 -95 0 -136 16 -199 74 -83 77 -90 103
-94 352 -4 208 -3 217 17 237 27 27 69 27 98 -1z m4250 0 l23 -21 0 -299 c0
-285 -1 -299 -20 -318 -11 -11 -33 -20 -50 -20 -17 0 -39 9 -50 20 -19 19 -20
33 -20 320 0 287 1 301 20 320 26 26 68 25 97 -2z m615 5 c9 -10 64 -114 123
-232 85 -172 109 -211 117 -198 5 10 50 108 99 219 49 111 94 208 100 215 29
34 109 1 109 -45 0 -37 -376 -882 -402 -905 -13 -11 -29 -15 -42 -11 -25 7
-66 43 -66 57 0 5 30 76 66 158 l66 148 -141 270 c-77 148 -141 273 -141 279
0 5 9 21 21 36 24 31 68 35 91 9z"/>
<path d="M6014 7235 c-40 -7 -89 -18 -110 -25 -67 -21 -173 -72 -178 -86 -3
-8 0 -11 10 -7 7 3 14 0 14 -6 0 -6 8 -11 18 -11 10 0 26 -6 37 -13 25 -16
118 -53 167 -65 21 -6 50 -19 65 -29 15 -10 55 -27 88 -38 33 -10 71 -24 85
-31 49 -25 118 -52 151 -59 19 -4 50 -17 69 -29 19 -11 65 -31 101 -43 37 -12
75 -26 85 -32 36 -19 112 -49 145 -56 19 -4 50 -17 69 -29 19 -11 66 -31 104
-44 38 -12 75 -27 82 -33 19 -15 33 -3 27 24 -11 48 -95 206 -144 271 -58 76
-168 173 -254 225 -177 107 -428 153 -631 116z"/>
<path d="M5740 4745 c0 -8 2 -15 4 -15 2 0 6 7 10 15 3 8 1 15 -4 15 -6 0 -10
-7 -10 -15z"/>
<path d="M3775 2652 c-85 -40 -132 -128 -122 -228 12 -117 93 -194 204 -194
123 0 206 89 206 222 0 80 -32 144 -93 184 -53 35 -139 42 -195 16z"/>
<path d="M5280 2595 l0 -355 115 0 c89 0 126 4 165 19 73 28 131 80 171 153
33 61 34 66 34 178 0 133 -15 178 -83 252 -72 78 -161 108 -318 108 l-84 0 0
-355z"/>
<path d="M4567 2649 c-37 -19 -79 -73 -92 -116 l-6 -23 195 0 195 0 -10 33
c-12 42 -38 77 -79 105 -44 30 -147 30 -203 1z"/>
<path d="M6303 2646 c-36 -17 -60 -38 -80 -67 -25 -38 -28 -51 -28 -130 0 -81
2 -90 30 -131 43 -62 103 -90 181 -86 82 5 132 38 168 109 61 122 13 264 -106
313 -53 22 -105 20 -165 -8z"/>
</g>
</svg>
