<?xml version="1.0" encoding="UTF-8"?>
<svg version="1.1" viewBox="0 0 1600 400" width="1280" height="1280" xmlns="http://www.w3.org/2000/svg">
<path transform="translate(0)" d="m0 0h1600v400h-1600v-400z" fill="#FAFEFE"/>
<path transform="translate(436 7.11)" d="m0 0c3.17 1.13 3.92 2.35 5.63 5.21 1.45 2.37 2.85 4.65 4.56 6.85 1.32 1.83 1.32 1.83 1.32 3.83 3.39 1.64 3.39 1.64 7 2 4.58-2.65 7.88-6.8 11.2-10.9 1.99-2.44 2.58-3.05 5.68-4.06 0.7-0.02 1.41-0.04 2.13-0.07 4.11 4.12 5.41 8.74 7.07 14.2 1.47 4.86 1.47 4.86 5.05 8.09 0.62 0.25 1.24 0.5 1.88 0.75 0.95-0.66 1.9-1.32 2.87-2 3.13-2 3.13-2 5.13-2l1-3c3.34-2.77 6.66-4.86 11-5.31 0.66 0.11 1.32 0.21 2 0.31 3.55 7.28 5.19 14.9 5 23 5.93 1.13 8.66 1.18 14-2 6.27-3 6.27-3 10-3l1-2c1.95 1.31 1.95 1.31 4 4 0.64 3.72 0.65 7.43 0.69 11.2 0.04 2.02 0.08 4.03 0.13 6.04 0.01 0.9 0.02 1.79 0.04 2.7-0.09 2.07-0.09 2.07 1.14 3.07 4.83 0.41 9.51 0.3 14.2-1 3.83-1 6.87-1.39 10.8-1 2.38 3.58 2.5 5.88 2 10-0.74 3.07-1.56 6.11-2.44 9.14-0.82 3.22-0.82 3.22 0.44 7.86 7.59 0.33 15.2 0.66 23 1 2.45 4.9 2.16 7.78 1 13-1.38 2.5-1.38 2.5-3 5-1.11 2.97-2.07 5.98-3 9 4.46 2.78 9.69 3.01 14.8 3.68 3.63 0.56 5.75 0.99 8.73 3.25 1.47 2.07 1.47 2.07 1.53 4.89-1.31 3.93-3.2 7.17-6.06 10.2h-2c-0.29 0.75-0.58 1.49-0.88 2.25-0.95 2.32-1.97 4.53-3.12 6.75 4.6 4.07 9.2 5.7 14.9 7.66 3.18 1.4 4.87 2.67 7.06 5.34l1 3c-3.41 5.32-8.54 9.51-13.4 13.5-1.86 1.56-1.86 1.56-2.6 4.54 0.49 0.46 0.99 0.91 1.5 1.38 1.5 1.62 1.5 1.62 1.5 3.62 0.83 0.15 0.83 0.15 1.68 0.29 2.91 0.9 4.96 2.33 7.44 4.09 0.87 0.61 1.74 1.21 2.64 1.84 2.24 1.78 2.24 1.78 4.24 4.78-0.11 2.5-0.11 2.5-1 5-1.89 1.66-1.89 1.66-4.25 3.07-2.7 1.66-5.15 3.25-7.63 5.25-2.12 1.68-2.12 1.68-5.12 2.68-0.5 2.24-0.5 2.24 0 5 1.9 2.25 3.72 4.16 5.87 6.13 5.96 5.63 5.96 5.63 8.13 8.87-0.08 3.22-0.68 4.64-2.81 7.07-3.92 2.38-7.86 3.55-12.2 4.81-3.23 1.23-5.37 2.85-7.94 5.12 1.03 1.42 1.03 1.42 2.08 2.86 0.91 1.25 1.82 2.51 2.73 3.77 0.45 0.62 0.9 1.23 1.37 1.87 6.87 9.53 6.87 9.53 6.76 13.8-1.31 2.44-2.35 2.72-4.94 3.75-2.84 0.67-5.69 1.15-8.56 1.63-0.77 0.13-1.54 0.27-2.33 0.41-3.07 0.52-5.99 0.96-9.11 0.96 0.45 5.34 1.05 8.47 4 13 3.88 8.58 3.88 8.58 3 13-1.83 2.08-3.3 2.93-6.06 3.23-2.51 0.03-5-0.01-7.5-0.1-1.71-0.04-3.42-0.08-5.13-0.12-0.76-0.02-1.51-0.05-2.29-0.07-2.23-0.02-2.23-0.02-5.02 1.06-0.24 5.58 0.42 10.6 2 16l1 1c0.37 5.85 0.37 5.85 0 8-3 2-3 2-5.5 1.75-1.16-0.24-2.31-0.49-3.5-0.75-6.08-1.21-11.8-2.27-18-2-1.22 2.45-1.09 3.96-1.03 6.69 0.01 0.93 0.02 1.85 0.04 2.81 0.03 1.96 0.07 3.92 0.11 5.87 0.02 0.93 0.03 1.86 0.04 2.82 0.01 0.85 0.03 1.7 0.05 2.58-0.21 2.23-0.21 2.23-2.21 5.23-5.28 1.06-9.01-1.28-13.5-3.69-3.09-1.63-6.25-2.96-9.47-4.31l-2-1v2h-2c-0.15 1.45-0.15 1.45-0.3 2.93-0.91 7.95-2.17 14.8-5.7 22.1-6.66-1.28-12.5-5.83-17.9-9.81-2.72-1.91-4.02-2.56-7.12-3.19-2.04 4.84-3.4 9.8-4.81 14.8-1.28 3.38-2.67 5.57-5.19 8.15-3.24 0.39-4.17 0.39-7-1-4-3.31-7.58-6.99-10.6-11.2-1.36-2.04-1.36-2.04-4.22-2.64-3.98 1.09-4.36 2.18-6.44 5.62-1.34 2.46-2.59 4.93-3.81 7.44-1.31 2.52-2.69 4.08-4.94 5.81-3.36 0.09-4.75-0.8-7.38-2.87-3.6-3.91-9.62-10.7-9.62-16.1-5.35 0.33-8.39 3.36-12 7-1.17 1.48-2.34 2.96-3.5 4.44-3 3.5-3 3.5-7.19 4-3.54-1.53-4.8-2.81-6.48-6.26-1.23-3.22-2.18-6.5-3.02-9.84-0.89-2.55-2.1-4.27-3.81-6.34-3.91 0.61-6.37 2.53-9.5 4.88-0.94 0.7-1.88 1.4-2.85 2.12-1.63 1.23-3.24 2.48-4.84 3.77-1.81 1.23-1.81 1.23-4.37 1.17-3.12-1.2-3.77-2.04-5.44-4.94-0.74-2.97-1.16-5.96-1.56-9-0.23-1.6-0.46-3.2-0.7-4.81-0.09-0.71-0.19-1.41-0.29-2.14-0.5-2.25-1.35-4.03-2.45-6.05h-2v2c-0.65 0.26-1.31 0.51-1.98 0.77-3.86 1.53-7.61 3.01-11.3 4.98-3.21 1.46-5.27 1.72-8.75 1.25-1.66-1.2-1.66-1.2-3-3-0.33-2.34-0.33-2.34-0.26-5.07 0.01-0.97 0.03-1.95 0.04-2.96 0.05-1.53 0.05-1.53 0.09-3.09 0.05-2.02 0.09-4.05 0.12-6.07 0.02-0.9 0.05-1.8 0.07-2.72 0.18-2.08 0.18-2.08-1.06-3.09-1.93 0.03-1.93 0.03-4.25 0.32-1.34 0.14-1.34 0.14-2.71 0.28-2.16 0.29-4.31 0.64-6.46 1.03-1.14 0.2-2.28 0.41-3.46 0.62-1.07 0.22-2.14 0.43-3.24 0.65-2.88 0.1-2.88 0.1-5.27-1.08-1.61-1.82-1.61-1.82-1.89-3.8 0.11-0.77 0.22-1.54 0.34-2.33 0.19-1.3 0.19-1.3 0.38-2.63 1.05-5.72 2.26-11.4 3.56-17.1h-2v-2c-0.69 0.08-1.38 0.15-2.09 0.22-17.2 1.71-17.2 1.71-22.9-1.22-0.33-5.44 0.49-8.74 3-13.6 2.3-4.44 3.36-7.41 3-12.4-3.83-1.72-7.28-2.39-11.4-2.87-5.28-0.74-8.52-1.66-12.6-5.13 1.11-3.48 2.26-6.77 4-10h2c0.31-0.78 0.62-1.56 0.94-2.37 1.06-2.63 1.06-2.63 2.06-4.63h2l1-7h-2v-2c-0.55-0.17-1.09-0.34-1.65-0.51-6.76-2.17-13.4-4.53-19.4-8.49 1.2-4.39 2.43-7.09 6-10h2c0.22-0.55 0.45-1.11 0.69-1.68 1.66-2.94 3.89-4.96 6.31-7.32 1.28-2.02 1.28-2.02 0.37-4.5-1.75-3.18-3.05-3.23-6.37-4.5-1.57-0.95-3.11-1.95-4.63-3-0.75-0.51-1.51-1.03-2.29-1.56-0.68-0.47-1.37-0.95-2.08-1.44l-3-2c-0.51-2.36-0.51-2.36 0-5 2.23-2.13 2.23-2.13 5.19-4.12 0.96-0.66 1.92-1.33 2.91-2.01 7.55-4.87 7.55-4.87 9.9-4.87 0.32-3.46 0.35-5.43-1.5-8.43-2.12-2.17-4.26-4.1-6.56-6.07-5.53-4.75-5.53-4.75-6.94-8.5 0.87-2.61 1.53-3.73 3.95-5.1 0.78-0.29 1.56-0.57 2.36-0.86 0.85-0.33 1.7-0.65 2.57-0.99 1.79-0.65 3.58-1.31 5.37-1.96 1.27-0.49 1.27-0.49 2.56-0.99 0.78-0.28 1.56-0.56 2.36-0.86 2.05-1.13 2.05-1.13 2.74-3.63 0.1-3.08-0.39-3.98-2.26-6.38-0.5-0.68-1-1.36-1.52-2.06-1.09-1.4-2.17-2.8-3.26-4.19-3.9-5.27-3.9-5.27-3.72-9.48 0.28-0.82 0.56-1.65 0.85-2.5 7.94-2.6 15.7-4.74 24-6-0.6-6.77-3.13-11.1-6.6-16.8-1.62-3.69-1.65-5.39-0.4-9.19 3.29-2.19 4.48-2.28 8.32-2.41 1.03-0.04 2.06-0.08 3.12-0.12 1.07-0.03 2.14-0.06 3.25-0.09 1.08-0.04 2.16-0.08 3.28-0.12 2.67-0.09 5.35-0.18 8.03-0.26-0.14-1.76-0.29-3.53-0.44-5.29-0.08-0.99-0.16-1.97-0.24-2.98-0.37-3.1-1.32-5.78-2.32-8.73-0.52-6.06-0.52-6.06 1.06-8.93 4.78-2.62 10.4-0.9 15.3 0.4 3.83 0.79 7.7 1.14 11.6 1.53-0.01-0.68-0.02-1.36-0.03-2.06-0.05-3.08-0.07-6.16-0.1-9.25-0.01-1.07-0.03-2.14-0.05-3.25 0-1.02-0.01-2.05-0.02-3.11-0.01-0.95-0.02-1.9-0.03-2.87 0.23-2.46 0.23-2.46 2.23-5.46 4.64-1.9 8.61 0.21 13 2 2.02 1.03 4.01 2.09 5.98 3.23 2.72 1.04 5.14 0.89 8.02 0.77 0.07-0.54 0.14-1.09 0.21-1.66 0.33-2.51 0.68-5.02 1.04-7.52 0.11-0.87 0.22-1.73 0.33-2.62 0.74-5.07 1.47-8.59 5.42-12.2 5.43-0.54 8.01 1.57 12.2 4.94 0.81 0.71 1.63 1.42 2.48 2.15 3.76 3.11 3.76 3.11 8.41 3.9 2.95-1.51 3.38-3.64 4.54-6.67 0.41-1.04 0.81-2.07 1.23-3.14 1.1-3.04 2.14-6.1 3.15-9.18h2v-2c2.19-0.75 2.19-0.75 5-1 4.2 2.55 7.14 6.36 10.2 10.1 3.42 3.82 3.42 3.82 8.21 5.06 3.91-1.78 5.19-4.9 7.16-8.59 0.76-1.38 1.52-2.75 2.29-4.12 0.33-0.62 0.66-1.23 1-1.86 1.82-2.65 3.38-3.62 6.58-3.48z" fill="#000204"/>
<path transform="translate(405 60.7)" d="m0 0c3.36 0.04 4.56 0.2 7.5 2 0.74 0.76 1.49 1.53 2.25 2.31 0.8 0.77 1.61 1.53 2.44 2.31 2.56 2.69 2.56 2.69 3.89 4.43 3.78 4.87 7.67 7.6 13.7 9.26 4.05-0.18 7.65-1.63 10.5-4.55 0.46-0.58 0.93-1.16 1.41-1.76 2.53-3.08 5.2-5.9 8.06-8.69 0.74-0.93 1.49-1.85 2.25-2.81 3.08-2.45 5-2.9 8.91-2.68 6.48 1.12 12.7 3.29 18.8 5.49 1.02 0.36 2.05 0.72 3.1 1.1 16.9 6.5 32.2 17.2 44.9 29.9 1.46 1.16 1.46 1.16 2.95 2.34 3.59 2.95 6.2 6.48 8.92 10.2 0.52 0.7 1.04 1.4 1.57 2.12 1.53 2.1 3.05 4.2 4.56 6.31 0.44 0.61 0.88 1.21 1.33 1.84 7.44 10.3 7.44 10.3 6.67 15.2-1.36 2.73-1.36 2.73-3.19 5.63-6.23 9.98-6.23 9.98-9.18 21.2 3.35 7.78 13.6 10.9 20.9 14.3 3.83 1.82 6.38 3.19 8.5 6.89 0.34 2.94 0.34 2.94 0.29 6.3-0.01 1.2-0.02 2.41-0.03 3.65-0.02 1.26-0.05 2.51-0.07 3.8-0.02 1.27-0.03 2.54-0.04 3.85-0.04 3.13-0.09 6.27-0.15 9.4l-15 1c-0.15 3.5-0.15 3.5-0.31 7.07-0.49 8.17-1.92 13.8-7.69 19.9-5.1 1.7-11 2.01-16.1 0.28-3.87-2.08-6.59-4.55-8.86-8.28-0.4-1.39-0.77-2.78-1.13-4.19-1.47-5.42-3.98-10.1-6.68-15-0.42-0.76-0.83-1.52-1.26-2.3-2.52-4.47-5.25-8.27-8.8-12-1.13-1.52-1.13-1.52-1.13-4.52 1.68-1.28 1.68-1.28 3.87-2.5 3.07-1.71 4.11-2.47 6.13-5.5 0.99-0.33 1.98-0.66 3-1 1.02-1.68 2.03-3.37 2.94-5.11 1.06-1.89 1.06-1.89 2.55-3.85 6.01-8.11 6.61-17.2 5.51-27-2.7-14-10.5-25.7-22-34-12-7.17-22.8-8.3-36.4-8.32l-4.65-0.03c-4.18-0.02-8.36-0.04-12.5-0.05-4.37-0.02-8.75-0.04-13.1-0.07-8.28-0.05-16.6-0.08-24.8-0.12-9.43-0.04-18.9-0.08-28.3-0.13-19.4-0.11-38.8-0.2-58.2-0.28 0.78-3.82 1.95-5.15 5-7.62 2.96-2.32 2.96-2.32 5-5.38 0.66-0.39 1.32-0.78 2-1.19 2.66-1.6 4.95-3.31 7.37-5.24 3.76-2.96 7.42-5.31 11.6-7.57 1.17-0.67 1.17-0.67 2.36-1.35 1.22-0.69 1.22-0.69 2.45-1.4 0.75-0.43 1.5-0.85 2.27-1.29 1.92-0.96 1.92-0.96 3.92-0.96l1-2c6.03-2.58 12.4-4.39 18.6-6.28 9.83-3.01 9.83-3.01 10.6-3.03z" fill="#FAFEFE"/>
<path transform="translate(416 214)" d="m0 0c0.8-0 1.6-0.01 2.42-0.01 1.7-0.01 3.4-0.01 5.09-0.01 2.58 0 5.15-0.02 7.72-0.04h4.96c1.14-0.01 1.14-0.01 2.31-0.02 5.89 0.02 11.9 0.41 16.8 3.92 9.49 10.8 11.6 24.7 14.5 38.3 1.84 8.47 3.75 16.4 9.8 22.9 7.52 4.82 16.2 4.44 24.9 4.51 1.18 0.01 2.37 0.03 3.58 0.05 3.75 0.05 7.49 0.09 11.2 0.13 3.77 0.04 7.54 0.09 11.3 0.14 2.34 0.04 4.68 0.06 7.02 0.08 1.06 0.02 2.11 0.03 3.19 0.04 0.93 0.01 1.86 0.02 2.81 0.03 2.23 0.15 2.23 0.15 4.23 1.15v2c-1.46 1.4-1.46 1.4-3.37 2.94-2.47 1.98-3.83 3.36-5.63 6.06-3.91 0.4-7.34-0.02-11.1-0.94-7.54-1.81-16.3-3.19-23.9-1.06-2.19 2.89-2.73 6.51-3.56 10-0.25 1.03-0.5 2.06-0.75 3.12-0.23 0.95-0.46 1.9-0.69 2.88-0.19 0.67-0.37 1.34-0.57 2.03-0.54 2.49-0.62 4.92-0.74 7.47-0.3 3.4-0.47 5.15-2.31 8.06-3.02 1.83-5.97 2.56-9.38 3.44-0.93 0.49-1.85 0.99-2.81 1.5-3.6 1.69-6.92 2.33-10.8 2.97-2.34 0.4-2.34 0.4-4.09 1.49-9.37 4.27-22.6 3.39-32.6 3.35-0.67 0-1.35 0-2.04-0.01-18-0.08-46-1.66-59.6-15.3-0.6-2.61-0.6-2.61-1.06-5.75-0.16-1.03-0.31-2.05-0.47-3.11-0.16-1.04-0.31-2.07-0.47-3.14-1.48-10-1.48-10-6-19-5.1-2.55-12.5-0.82-18.1-0.06-0.67 0.08-1.34 0.17-2.03 0.26-3.26 0.43-6.5 0.9-9.74 1.46-3.17 0.34-3.17 0.34-5.79-1.22-7.38-7.57-7.38-7.57-7.38-10.4 56.9-0.5 56.9-0.5 115-1v-42c-1.06-1.29-1.06-1.29-3.53-1.08-1.1 0.01-2.2 0.03-3.33 0.05-1.2 0.01-2.39 0.03-3.63 0.04-2.53 0.03-5.07 0.07-7.61 0.11-1.2 0.02-2.4 0.03-3.64 0.04-1.65 0.02-1.65 0.02-3.34 0.05-2.92-0.21-2.92-0.21-6.92-2.21v-23c3.16-1.58 6.55-1.17 10-1.17z" fill="#FAFEFE"/>
<path transform="translate(1168 187)" d="m0 0c1.33-0.02 1.33-0.02 2.69-0.05 4.13-0.04 8.25-0.08 12.4-0.11 2.16-0.01 4.32-0.04 6.47-0.08 30.7-0.54 30.7-0.54 39.7 7.78 4.27 5.15 5.61 9.36 5.7 16 0.03 1.12 0.05 2.24 0.08 3.4-0.43 4.25-1.87 6.76-4.86 9.77-4.25 3.34-4.25 3.34-6.47 4.45 0.53 0.29 1.06 0.59 1.61 0.89 4.78 2.77 7.66 5.17 10.4 10.1 0.36 0.57 0.71 1.14 1.08 1.73 2.26 5.56 1.91 13.9 0.23 19.6-3.97 7.46-10.1 10.3-17.7 12.8-6.67 1.6-13.4 1.55-20.2 1.61-1.52 0.03-3.03 0.06-4.54 0.09-2.95 0.05-5.9 0.09-8.85 0.12-3.38 0.04-6.76 0.09-10.1 0.16-1.61 0.03-3.23 0.05-4.85 0.07-0.71 0.01-1.42 0.03-2.15 0.04-1.62 0-3.23-0.1-4.85-0.23-2.55-2.54-2.23-4.17-2.25-7.64 0.01-0.79 0.02-1.58 0.03-2.39 0-0.83-0.01-1.66-0.01-2.51 0.01-2.75 0.02-5.5 0.04-8.25 0-1.9 0-3.8 0.01-5.7 0-5.02 0.02-10 0.05-15 0.02-5.11 0.02-10.2 0.03-15.3 0.03-10 0.06-20.1 0.1-30.1 2.32-1.15 3.71-1.15 6.29-1.19z" fill="#000204"/>
<path transform="translate(1088 187)" d="m0 0c0.92-0.04 1.84-0.07 2.79-0.11 2.51-0.04 4.8 0 7.27 0.49 1.98 2.19 1.98 2.19 3 5 0.64 1.29 0.64 1.29 1.28 2.61 2.15 4.75 4.2 9.49 5.96 14.4 1.18 3.07 2.59 6.03 3.99 9 0.77 1.99 0.77 1.99 0.77 4.99 0.66 0.32 1.32 0.65 2 1 0.85 1.9 1.6 3.85 2.32 5.81 3.47 9.32 7.34 18.4 11.3 27.6 0.43 1 0.43 1 0.87 2.02 0.28 0.64 0.57 1.28 0.85 1.94 0.28 0.62 0.55 1.24 0.83 1.88 0.79 1.71 1.69 3.36 2.6 5.01 1.35 3.06 1.18 3.73 0.22 6.78-3.25 0.11-6.5 0.18-9.75 0.24-0.92 0.04-1.84 0.07-2.79 0.11-6.78 0.09-6.78 0.09-9.97-2.02-1.67-2.62-2.67-5.06-3.61-8.02-0.58-1.79-1.19-3.57-1.88-5.31-2.85-1.43-5.29-1.13-8.47-1.14h-3.98-2.08c-2.06 0.01-4.13 0-6.2 0-6.51 0-12.8 0.09-19.3 1.14-0.1 1.19-0.2 2.39-0.31 3.62-0.37 4.34-1.51 6.02-3.69 10.4h-21c-1-4-1-4 0.25-6.26 0.87-1.36 0.87-1.36 1.75-2.74 0.72-1.91 1.44-3.81 2.13-5.73 0.96-2.5 2.05-4.91 3.19-7.34 2.4-5.2 4.54-10.5 6.63-15.8 1.86-4.75 1.86-4.75 2.94-6.88 1.53-3.08 2.89-6.24 4.26-9.39 0.31-0.69 0.61-1.38 0.92-2.08 0.96-2.2 1.91-4.39 2.87-6.59 0.64-1.46 1.28-2.93 1.92-4.39 0.62-1.42 1.24-2.83 1.86-4.25 0.28-0.65 0.57-1.3 0.86-1.98 0.27-0.62 0.55-1.25 0.83-1.9 0.26-0.6 0.53-1.21 0.8-1.83 0.55-1.27 1.08-2.54 1.59-3.83 3-7.38 6.86-6.27 14.1-6.38z" fill="#000204"/>
<path transform="translate(653,187)" d="m0 0c1.94-0.37 1.94-0.37 4.28-0.36h2.55c0.88 0.01 1.76 0.03 2.67 0.05 0.88-0.01 1.76-0.01 2.67-0.01 6.56 0.05 6.56 0.05 8.83 2.32 0.26 2.33 0.26 2.33 0.27 5.29 0.01 1.1 0.02 2.21 0.03 3.35 0 1.2 0.01 2.39 0.01 3.63 0.02 2.52 0.05 5.05 0.07 7.57 0.03 3.99 0.06 7.98 0.08 12 0.02 3.84 0.06 7.68 0.1 11.5v3.62c0.01 1.11 0.03 2.23 0.04 3.37 0 0.98 0.01 1.96 0.01 2.97 0.71 4.98 3.6 8.61 7.53 11.7 4.95 2.69 10.9 2.43 16.2 1.26 4.25-1.46 4.25-1.46 7.62-4.25 1.79-3.7 2.26-6.68 2.29-10.8 0.02-1.7 0.02-1.7 0.04-3.44 0-1.21 0.01-2.43 0.01-3.68 0.02-1.25 0.03-2.5 0.05-3.79 0.05-4.69 0.09-9.37 0.13-14 0.03-4.59 0.08-9.19 0.14-13.8 0-1.22 0.01-2.44 0.01-3.7 0.02-1.69 0.02-1.69 0.04-3.41 0.01-0.99 0.02-1.99 0.02-3.01 0.27-2.37 0.27-2.37 2.27-4.37 1.94-0.26 1.94-0.26 4.28-0.27h2.55c1.32 0.01 1.32 0.01 2.67 0.02 0.88-0.01 1.76-0.02 2.67-0.02h2.55c1.16 0.01 1.16 0.01 2.34 0.01 1.94 0.26 1.94 0.26 3.94 2.26 0.19 2.88 0.26 5.65 0.23 8.53v2.62c0 1.84-0.01 3.69-0.02 5.53-0.02 2.75-0.02 5.51-0.02 8.26-0.02 8.7-0.17 17.4-0.62 26.1-0.04 0.73-0.08 1.46-0.11 2.22-0.52 8.82-2.84 15-8.46 21.8h-2c-0.5 1.49-0.5 1.49-1 3-2.11 1.57-2.11 1.57-4.75 3.12-0.86 0.52-1.72 1.04-2.61 1.58-2.6 1.28-4.79 1.83-7.64 2.3-0.99 0.5-0.99 0.5-2 1-14.8 1.4-27.4 0.39-39.9-8.06-7.28-6.11-10.6-15.2-11.4-24.4-0.09-1.35-0.17-2.7-0.24-4.05-0.04-0.74-0.08-1.47-0.13-2.23-0.43-8.34-0.51-16.7-0.51-25 0-2.64-0.02-5.28-0.03-7.92-0.01-1.69-0.01-3.38-0.01-5.07-0.01-0.79-0.01-1.57-0.02-2.38 0.01-3.82 0.08-5.59 2.25-8.85z" fill="#000204"/>
<path transform="translate(1335 194)" d="m0 0c0.6 0.58 1.2 1.16 1.81 1.75-0.54 4.6-1.76 7.87-4.06 11.9-0.55 0.97-1.1 1.94-1.66 2.93-0.42 0.73-0.84 1.45-1.28 2.2-2.69-1.07-5.36-2.15-8.02-3.29-8.71-3.47-16.6-5.14-26-3.71-1.97 1.24-1.97 1.24-3 3-0.15 2.52-0.15 2.52 1 5 3.49 3.24 6.58 4.77 11.1 6.11 1.16 0.36 2.33 0.73 3.53 1.1 2.43 0.73 4.86 1.45 7.3 2.17 9.06 2.83 15.9 6.24 20.6 14.8 2.6 6.75 2.36 13.7 0.44 20.6-4.07 6.7-8.63 10.5-15.9 13.2l-3 2c-18 5.09-35.4-1.5-51-10l-3-2c1.4-5.95 3.89-10.8 7-16 5.11 0.49 7.8 2.17 12 5 9.63 4.44 19.5 6.8 30 4 0.87-3.4 1.25-5.38-0.06-8.69-4.72-5.63-13.1-7.12-19.9-9.21-16.8-5.31-16.8-5.31-22.1-12.1-2.95-6.06-2.74-12.4-2-19 1.22-3.13 2.86-5.44 5-8 0.54-0.89 1.07-1.77 1.63-2.69 14.5-14.1 44-12 59.6-1.06z" fill="#000204"/>
<path transform="translate(816,188)" d="m0 0c1.5 0.42 1.5 0.42 3.04 0.85 5.92 1.78 10.1 3.21 14 8.15-1.75 6.75-1.75 6.75-4 9-0.29 0.85-0.58 1.69-0.88 2.56-1.12 2.44-1.12 2.44-2.78 3.24-3.39 0.29-5.72-0.88-8.84-2.18-5-2.05-9.18-3.76-14.6-3.72-1.13 0.01-1.13 0.01-2.28 0.01-0.78 0.01-1.56 0.02-2.36 0.03-0.79 0-1.59 0.01-2.4 0.01-1.95 0.01-3.9 0.03-5.85 0.05-0.5 3.29-0.5 3.29 0 7 5.5 6.77 15 8.09 23 10.4 9.06 2.81 15.9 6.2 20.5 14.8 2.6 6.75 2.36 13.7 0.44 20.6-4.93 8.11-12 13.3-21.2 15.8-3.88 0.53-7.71 0.52-11.6 0.5-0.77 0.01-1.55 0.01-2.35 0.02-14.6-0.03-25.5-5.6-37.8-13.1l2-7h2c0.1-0.72 0.21-1.44 0.31-2.19 0.75-3.05 1.97-5.19 3.69-7.81 3.33 1.18 6.32 2.7 9.38 4.44 8.81 4.96 16.4 7.26 26.6 6.56 3.32-0.97 3.32-0.97 6-3-0.15-3.86-0.37-6.24-2.88-9.25-3.69-2.07-7.25-3.02-11.4-4.04-3.06-0.79-5.94-1.81-8.88-2.98-1.26-0.49-2.55-0.94-3.84-1.34-7.08-2.29-13-6.29-17.1-12.6-1.9-7.71-2.23-15.2 1.95-22.1 0.36-0.55 0.73-1.1 1.11-1.67 0.52-0.87 1.03-1.73 1.56-2.62 11.9-11.6 30.1-13 45.4-8.38z" fill="#000204"/>
<path transform="translate(321,148)" d="m0 0h21c2.21 4.42 2.27 7.65 2.23 12.4v2.57c0 2.81-0.02 5.61-0.03 8.41-0.01 1.95-0.01 3.89-0.01 5.84-0.01 5.11-0.03 10.2-0.05 15.3-0.02 5.23-0.03 10.4-0.04 15.7-0.02 10.2-0.06 20.5-0.1 30.7-5.77 0.22-11.5 0.41-17.3 0.59-1.96 0.07-3.92 0.13-5.88 0.21-2.82 0.11-5.64 0.19-8.46 0.27-0.88 0.04-1.75 0.08-2.66 0.12-6.05 0.15-6.05 0.15-9.21-1.49-2.3-2.63-2.93-5.63-3.68-8.95-0.16-0.71-0.33-1.42-0.5-2.16-2.28-10.3-2.37-20.6-2.43-31.1-0.01-0.74-0.01-1.48-0.02-2.25 0.01-4.49 0.15-8.85 1.14-13.2 2.72-1.69 5.06-2.81 8-4 12.3-5.1 12.3-5.1 21.2-14.4-0.23-3.21-1.2-5.72-2.5-8.66-0.69-1.96-0.69-1.96-0.69-5.96z" fill="#FAFEFE"/>
<path transform="translate(865 187)" d="m0 0c0.7-0 1.4-0 2.12-0.01 2.33 0 4.66 0 6.99 0.01 1.61-0 3.22-0.01 4.83-0.01 3.38 0 6.76 0 10.1 0.01h13c3.33-0.01 6.65-0.01 9.98-0 1.6-0 3.2-0 4.8-0.01 2.24 0 4.47 0 6.71 0.01h3.86c2.84 0.13 2.84 0.13 3.84 1.13 0.08 2.86 0.1 5.7 0.07 8.56-0.03 2.79-0.05 5.57-0.07 8.44l-26 1c0.01 2.05 0.01 4.11 0.02 6.23 0.02 6.77 0.03 13.5 0.03 20.3 0.01 4.1 0.02 8.21 0.03 12.3 0.01 3.96 0.02 7.92 0.02 11.9 0 1.51 0 3.03 0.01 4.54 0.01 2.11 0.01 4.23 0.01 6.34v3.66c-0.12 2.7-0.12 2.7-1.12 3.7-3.14 0.25-6.29 0.18-9.43 0.19-1.33 0.02-1.33 0.02-2.69 0.03-0.84 0.01-1.69 0.01-2.56 0.01-0.78 0-1.56 0.01-2.36 0.01-1.96-0.24-1.96-0.24-3.96-2.24-0.27-2.74-0.27-2.74-0.3-6.27-0.02-1.32-0.03-2.64-0.05-3.99-0.01-1.45-0.02-2.89-0.03-4.34-0.01-1.47-0.03-2.95-0.05-4.42-0.04-3.89-0.08-7.77-0.11-11.6-0.05-6.23-0.12-12.4-0.19-18.7-0.02-2.18-0.04-4.36-0.05-6.54-0.02-1.31-0.03-2.63-0.04-3.98-0.01-1.16-0.02-2.33-0.03-3.53 0.15-2.54 0.15-2.54-1.15-3.61-1.69-0.15-3.39-0.23-5.09-0.28-1.55-0.06-1.55-0.06-3.12-0.12-1.09-0.03-2.17-0.06-3.29-0.1-2.13-0.07-4.27-0.14-6.4-0.22-0.96-0.03-1.91-0.06-2.89-0.09-2.21-0.19-2.21-0.19-3.21-1.19-0.1-2.68-0.14-5.32-0.12-8-0.01-0.75-0.01-1.5-0.01-2.27 0.01-7.25 0.79-6.86 7.84-6.86z" fill="#000204"/>
<path transform="translate(961,187)" d="m0 0c3.12-0.06 6.25-0.09 9.38-0.12 0.88-0.02 1.77-0.04 2.69-0.06 0.85 0 1.7-0.01 2.58-0.02 1.18-0.01 1.18-0.01 2.38-0.03 1.97 0.23 1.97 0.23 3.97 2.23 0.28 2.78 0.28 2.78 0.32 6.38 0.01 0.65 0.02 1.31 0.03 1.98 0.03 2.16 0.05 4.33 0.06 6.49l0.06 4.5c0.05 3.95 0.09 7.9 0.13 11.8 0.04 4.02 0.09 8.05 0.14 12.1 0.1 7.91 0.18 15.8 0.26 23.7 1.53-0.02 1.53-0.02 3.09-0.03 3.78-0.04 7.55-0.06 11.3-0.08 1.63-0.01 3.27-0.02 4.9-0.04 2.35-0.03 4.7-0.04 7.05-0.05 0.73-0.01 1.46-0.02 2.22-0.03 1.8 0 3.61 0.11 5.41 0.23 2 2 2 2 2.2 5.7-0.02 1.47-0.04 2.95-0.08 4.42 0 0.76-0.01 1.51-0.02 2.29-0.03 1.86-0.06 3.73-0.1 5.59-13.6 0.7-27.1 1.12-40.7 1.18-1.48 0-2.97 0.01-4.46 0.03-2.1 0.02-4.2 0.02-6.29 0.02-1.22 0-2.43 0.01-3.68 0.01-2.86-0.24-2.86-0.24-4.86-2.24-0.2-2.49-0.27-4.87-0.26-7.37 0-0.76-0.01-1.52-0.01-2.3-0.01-2.52 0-5.04 0-7.56v-5.26c0-3.67 0-7.35 0.01-11 0.01-4.7 0-9.4-0.01-14.1-0.01-3.62 0-7.24 0-10.9v-5.2c-0.01-2.43 0-4.86 0.01-7.3 0-0.71-0.01-1.42-0.01-2.15 0.04-4.67 0.83-8.46 2.27-12.9z" fill="#000204"/>
<path transform="translate(406,148)" d="m0 0c7.1-0.05 14.2-0.09 21.3-0.11 2.41-0.01 4.82-0.02 7.23-0.04 3.48-0.03 6.96-0.04 10.4-0.05 1.07-0.01 2.14-0.02 3.24-0.03 14.4 0 14.4 0 20 3.68 2.57 3.14 4.19 5.55 4.43 9.67-0.7 4.36-1.36 5.95-4.62 8.88-8.19 4.5-17.3 4.16-26.4 4.17-0.96 0-1.92 0-2.91 0.01-2.01 0-4.02 0.01-6.03 0.01-3.08 0-6.17 0.02-9.25 0.03-1.96 0.01-3.92 0.01-5.88 0.01-1.38 0.01-1.38 0.01-2.8 0.02-0.85 0-1.7 0-2.58-0.01-1.12 0.01-1.12 0.01-2.27 0.01-1.85-0.25-1.85-0.25-3.85-2.25-0.23-2.43-0.23-2.43-0.2-5.45 0.01-1.07 0.02-2.15 0.02-3.26 0.02-1.12 0.04-2.25 0.06-3.41 0-1.14 0.01-2.28 0.02-3.45 0.03-2.81 0.06-5.62 0.1-8.43z" fill="#FAFEFE"/>
<path transform="translate(1191 238)" d="m0 0c0.92-0 1.84-0.01 2.78-0.01 0.97 0.01 1.93 0.02 2.92 0.03 1.43-0.02 1.43-0.02 2.88-0.03 10.2 0.03 10.2 0.03 14.6 3.84 1.78 3.65 1.94 7.45 1.19 11.4-1.08 1.7-1.08 1.7-3 3-8.41 1.88-20.2 4.35-28 0-0.06-2.63-0.1-5.25-0.13-7.88-0.02-0.75-0.03-1.49-0.05-2.26-0.02-1.96 0.07-3.91 0.18-5.86 2.47-2.48 3.21-2.26 6.61-2.27z" fill="#FAFEFE"/>
<path transform="translate(1208 205)" d="m0 0c2.67 1.09 3.59 2.35 5.02 4.83 0.47 2 0.47 2 0.5 4 0.03 0.66 0.07 1.32 0.1 2-1.01 3.4-2.51 4.27-5.6 6-3.74 0.53-7.41 0.47-11.2 0.37h-3.06c-7.48-0.09-7.48-0.09-9.76-2.37-0.3-2.94-0.3-2.94-0.31-6.44-0.02-1.15-0.03-2.31-0.05-3.5 0.36-3.06 0.36-3.06 1.5-4.95 6.04-3.6 16.2-1.13 22.8 0.06z" fill="#FAFEFE"/>
<path transform="translate(1086,211)" d="m0 0h2c4.39 11.7 4.39 11.7 5.19 13.8 0.55 1.45 1.09 2.9 1.64 4.34 1.47 3.92 2.88 7.83 4.17 11.8-2.45 1.23-4.05 1.11-6.79 1.1-0.94-0.01-1.88-0.01-2.85-0.01-1.48-0.01-1.48-0.01-2.98-0.03-1 0-1.99-0.01-3.01-0.01-2.46-0.01-4.91-0.03-7.37-0.05-0.17-5.55-0.2-8.33 2.92-13.2 1.59-2.73 2.42-5.62 3.35-8.63 1.04-3.17 2.37-6.17 3.73-9.22z" fill="#F7FBFB"/>
<path transform="translate(576 143)" d="m0 0c4.13 0.51 5.41 2.28 8.06 5.38 0.66 0.65 1.32 1.31 2 2 0.2 2.16 0.2 2.16 0.13 4.62-0.02 0.82-0.04 1.63-0.06 2.48-0.02 0.62-0.04 1.25-0.07 1.9-0.66 0.32-1.32 0.65-2 1-0.33 0.99-0.66 1.97-1 3-3.47 2.53-6.83 2.49-11 2-3.28-1.76-6.31-3.62-8-7-0.04-4.53 0.46-8.11 2.82-12 3.12-2.86 5.03-2.86 9.12-3.38z" fill="#FAFEFE"/>
<path transform="translate(304 146)" d="m0 0c1.96 3.69 2.78 6.76 2.56 10.9-1.13 3.22-2.03 5.21-4.68 7.37-5.32 1.44-8.96 1.34-13.8-1.19-3.4-2.91-3.5-4.57-3.93-9 0.03-3.26 0.6-5.05 2.62-7.62 4.98-4.63 11.8-5.03 17.2-0.5z" fill="#FAFEFE"/>
<path transform="translate(438 41.3)" d="m0 0c3.77 1.37 6.14 4.18 7.9 7.69 0.55 3.11 0.63 5.9 0 9-2.6 3.7-5.59 5.64-9.94 6.75-4.61-1.13-8.09-2.99-11.1-6.75-0.99-4.57-0.47-8.6 1-13 4.07-3.57 6.89-4.65 12.1-3.69z" fill="#F9FDFD"/>
<path transform="translate(356,308)" d="m0 0c3.26 3.18 4.28 6.06 4.69 10.5-0.18 3.71-1.06 5.5-3.75 8.06-2.71 1.97-4.1 2.47-7.5 3.06-4.24-0.77-6.31-1.63-9.44-4.62-1.74-3.67-2.55-7.11-1.39-11.1 1.41-2.77 3.02-4.68 5.58-6.43 4.12-0.73 7.79-0.76 11.8 0.5z" fill="#F9FDFD"/>
<path transform="translate(528,308)" d="m0 0c3.39 3.39 4.31 6.4 4.62 11.1-0.15 3.57-0.55 5.59-3.18 8.06-4 2.19-5.96 2.6-10.4 1.88-3.44-1.88-3.44-1.88-6-4v-2h-2c-0.25-4.24-0.39-7.91 1.06-11.9 4.29-4.56 10.2-4.79 15.9-3.06z" fill="#FAFEFE"/>
</svg>
