<svg version="1.1" id="Layer_1" xmlns="http://www.w3.org/2000/svg" xmlns:xlink="http://www.w3.org/1999/xlink" x="0px" y="0px"
	 width="100%" viewBox="0 0 712 205" enable-background="new 0 0 712 205" xml:space="preserve">
<path fill="#FEFEFF" opacity="1.000000" stroke="none" 
	d="
M471.000000,206.000000 
	C314.000000,206.000000 157.500000,206.000000 1.000000,206.000000 
	C1.000000,137.666672 1.000000,69.333336 1.000000,1.000000 
	C238.333328,1.000000 475.666656,1.000000 713.000000,1.000000 
	C713.000000,69.333336 713.000000,137.666672 713.000000,206.000000 
	C632.500000,206.000000 552.000000,206.000000 471.000000,206.000000 
M172.921143,43.289974 
	C169.629349,41.478767 166.337555,39.667557 162.652832,37.310326 
	C159.136063,35.353508 155.619293,33.396687 151.661224,31.003151 
	C149.121521,29.623987 146.581818,28.244822 143.626434,26.342934 
	C140.785919,24.780178 137.945389,23.217421 134.669373,21.162828 
	C132.484787,19.987343 130.300217,18.811857 127.669830,17.149023 
	C124.120369,15.399804 120.570908,13.650585 116.754936,11.277157 
	C114.254219,9.796319 111.753494,8.315481 108.802879,6.281318 
	C105.303932,5.112659 101.804977,3.943999 97.604622,2.285120 
	C86.794754,0.284780 78.329254,5.657899 69.239975,11.287532 
	C63.828121,14.545999 58.416271,17.804466 52.315567,21.166466 
	C40.246010,28.112165 28.150738,35.013687 16.115751,42.018780 
	C7.810052,46.853195 2.584808,54.232883 2.183110,63.695820 
	C1.571437,78.105270 2.114035,92.563713 2.032978,107.930161 
	C2.078098,116.953621 2.123218,125.977074 2.034208,135.906921 
	C1.459567,143.645905 2.700697,150.866669 8.235461,157.570023 
	C12.777079,160.856934 17.318697,164.143845 22.307230,167.904419 
	C26.165676,170.048981 30.024120,172.193542 34.303345,174.844818 
	C37.872475,176.827469 41.441605,178.810135 45.508247,181.283981 
	C48.339993,182.828568 51.171738,184.373138 54.506035,186.379150 
	C56.290413,187.393250 58.074795,188.407349 60.278427,189.913879 
	C61.819309,190.677505 63.360188,191.441116 65.287529,192.749817 
	C68.050331,194.241135 70.813133,195.732452 74.014877,197.782028 
	C77.971352,199.643112 81.927834,201.504211 86.512970,203.775558 
	C90.342148,203.826675 94.171326,203.877777 98.779060,204.040009 
	C106.513229,200.126755 114.247398,196.213486 122.614990,192.154587 
	C123.081833,191.761566 123.548683,191.368546 123.986931,190.980408 
	C123.986931,190.980408 123.970940,191.004608 124.687111,190.966919 
	C136.555603,184.027313 148.424088,177.087708 160.969360,170.007034 
	C165.779938,166.967880 170.590515,163.928726 175.930603,160.389084 
	C178.255646,156.924454 180.580688,153.459824 183.355347,149.367447 
	C183.847595,145.576874 184.339844,141.786285 184.967178,137.088287 
	C184.922211,133.724228 184.877243,130.360153 184.967484,126.088341 
	C184.921936,122.723541 184.876373,119.358734 184.966217,115.076622 
	C184.922043,111.049301 184.877869,107.021973 184.968231,102.094589 
	C184.922775,99.060921 184.877335,96.027260 184.968811,92.102325 
	C184.923431,89.400345 184.878067,86.698357 184.971588,83.129501 
	C184.947937,81.089523 184.924271,79.049538 185.056671,76.384018 
	C185.013718,75.958366 184.970764,75.532715 185.126541,74.168465 
	C185.141037,72.041817 185.155228,69.915176 185.170059,67.788528 
	C185.215500,61.271317 183.888199,55.222645 179.232391,49.670811 
	C177.270721,47.732166 175.309052,45.793518 172.921143,43.289974 
M466.984680,104.500000 
	C466.984711,114.323265 467.086548,124.148056 466.938568,133.969086 
	C466.872101,138.379440 468.784821,140.553787 473.104370,140.521393 
	C480.255249,140.467773 487.436676,140.684418 494.549622,140.104752 
	C513.249756,138.580780 526.660156,124.634842 527.949341,105.847656 
	C529.397949,84.736534 518.354126,68.314537 499.089722,64.767395 
	C490.693939,63.221485 481.857452,64.112457 473.225128,63.789963 
	C468.778839,63.623856 466.893585,65.570999 466.943604,70.034790 
	C467.068512,81.188614 466.984680,92.344780 466.984680,104.500000 
M346.809235,92.852295 
	C346.721008,85.539078 346.648071,78.225624 346.538086,70.912735 
	C346.482635,67.225441 346.198730,63.686584 341.100433,63.809761 
	C336.321747,63.925209 336.121796,67.192894 336.130524,70.762390 
	C336.165619,85.075142 336.104645,99.388176 336.156982,113.700829 
	C336.204681,126.751923 344.609955,137.432480 356.851074,140.151703 
	C370.007355,143.074219 382.477051,137.147095 387.988495,125.351387 
	C393.213287,114.169228 390.013397,98.968536 380.891144,91.636063 
	C371.084656,83.753662 358.715393,84.341530 346.809235,92.852295 
M244.515076,113.955460 
	C240.535614,108.484650 236.556152,103.013832 232.406631,97.309219 
	C240.586105,89.174675 248.480667,81.301094 256.403900,73.456459 
	C259.014832,70.871445 260.845551,67.736679 257.736633,64.856537 
	C254.905258,62.233490 251.975952,64.113907 249.525833,66.589264 
	C240.384491,75.824699 231.172272,84.990082 221.966034,94.161087 
	C220.987717,95.135666 219.874207,95.974564 218.171219,97.436165 
	C218.171219,87.575226 218.148819,78.634773 218.182404,69.694534 
	C218.195587,66.181564 216.962494,63.850895 213.055908,63.840012 
	C209.195145,63.829254 207.821594,66.069534 207.823715,69.613419 
	C207.836685,91.271492 207.841934,112.929581 207.820343,134.587631 
	C207.816727,138.216934 209.559036,140.443878 213.135818,140.394073 
	C216.795914,140.343079 218.244095,137.893127 218.191025,134.340805 
	C218.113907,129.177368 218.623306,123.961922 218.058243,118.859947 
	C217.357956,112.537102 220.068451,108.475159 225.358475,105.132225 
	C233.127930,115.657387 240.943848,126.163292 248.655777,136.744995 
	C250.842026,139.744781 253.394928,142.069565 256.878571,139.398605 
	C260.233093,136.826691 259.023468,133.566605 256.806946,130.596832 
	C252.824631,125.261185 248.909149,119.875648 244.515076,113.955460 
M546.171326,95.713150 
	C545.337891,96.950195 544.389526,98.125732 543.689331,99.434074 
	C538.299561,109.504181 538.520569,119.635277 544.375305,129.291077 
	C549.448792,137.658249 557.434021,141.984390 567.115662,140.611740 
	C572.962036,139.782883 578.478882,136.629974 583.888184,134.616470 
	C583.827820,137.594391 584.972229,140.765594 589.694824,140.435333 
	C594.391357,140.106903 594.233276,136.497253 594.200134,133.037796 
	C594.141174,126.885925 594.074158,120.730728 594.206726,114.581154 
	C594.470581,102.337410 589.229370,93.379494 578.107971,88.328491 
	C567.426575,83.477333 555.590576,86.277809 546.171326,95.713150 
M430.451935,140.848038 
	C435.949951,139.196045 441.537598,137.784470 446.905487,135.783371 
	C449.329987,134.879547 451.323669,132.170898 449.061401,129.853241 
	C447.658630,128.416153 444.543762,128.171494 442.231964,128.263077 
	C440.596405,128.327911 439.087585,130.025009 437.403931,130.697296 
	C426.016541,135.244431 413.649323,128.722672 412.309357,117.182953 
	C413.966949,117.182953 415.586121,117.183205 417.205322,117.182907 
	C427.365509,117.181076 437.525757,117.152428 447.685791,117.190903 
	C451.525726,117.205437 453.566467,115.664742 453.559387,111.564751 
	C453.539856,100.221703 447.235291,90.578056 437.605713,87.423035 
	C426.372314,83.742546 413.546387,87.566551 407.326294,96.850319 
	C401.091797,106.155586 400.383881,116.288246 405.223694,126.253311 
	C410.024628,136.138336 418.719360,140.520111 430.451935,140.848038 
M278.918396,119.895912 
	C278.796356,110.738724 278.674042,101.581551 278.552490,92.424355 
	C278.506195,88.937614 277.062988,86.495712 273.305359,86.515366 
	C269.580994,86.534828 268.113342,88.890503 268.126526,92.434021 
	C268.158142,100.932762 267.856781,109.443306 268.204315,117.928001 
	C268.816711,132.879059 279.763214,142.550476 294.351776,140.796097 
	C298.972076,140.240448 303.391663,138.015793 306.644897,136.962372 
	C310.009308,138.175705 312.877106,140.231186 315.434784,139.899033 
	C319.531128,139.367050 318.850739,135.283249 318.855682,132.169662 
	C318.876343,119.171425 318.834473,106.173035 318.883820,93.174957 
	C318.897247,89.635376 318.126129,86.643478 313.950775,86.524551 
	C309.589752,86.400345 308.387421,89.263168 308.419769,93.135872 
	C308.489410,101.467506 308.383942,109.800644 308.459747,118.132172 
	C308.512909,123.975510 305.827301,127.924370 300.575806,130.262039 
	C291.441956,134.327911 282.290100,130.290833 278.918396,119.895912 
M664.288208,100.261322 
	C669.782593,110.680550 675.425354,121.026451 680.639587,131.584030 
	C681.622009,133.573151 681.614319,136.671997 680.824402,138.798523 
	C678.518677,145.006012 675.485229,150.938705 672.937988,157.062683 
	C671.472351,160.586243 673.296021,164.041061 676.852478,163.713882 
	C678.828613,163.532089 681.404419,161.270920 682.303223,159.304031 
	C691.404480,139.388672 700.214294,119.340172 709.108215,99.330040 
	C709.916565,97.511452 710.778503,95.715775 711.548889,93.881470 
	C712.721619,91.089302 712.577698,88.484924 709.497864,87.158775 
	C706.527649,85.879814 703.954407,86.467140 702.615112,89.861893 
	C702.006714,91.404106 701.266296,92.894104 700.591125,94.410156 
	C696.251648,104.153908 691.913635,113.898315 687.180054,124.530014 
	C685.506042,121.308212 684.285156,119.010963 683.111267,116.689949 
	C678.542969,107.657578 673.978882,98.623009 669.436523,89.577545 
	C667.978271,86.673492 665.640930,85.774612 662.837891,87.146591 
	C659.959595,88.555405 659.451538,91.027092 660.935669,93.867630 
	C661.934448,95.779358 662.940735,97.687119 664.288208,100.261322 
M650.672974,140.501450 
	C652.302124,140.242462 654.403442,140.516327 655.444458,139.593719 
	C656.842102,138.355057 658.192444,136.152496 658.105164,134.438019 
	C658.035767,133.075623 655.972351,131.032043 654.457886,130.659927 
	C647.453491,128.938965 646.867004,128.484604 646.856201,121.107971 
	C646.832336,104.805122 646.850708,88.502228 646.845276,72.199348 
	C646.844849,70.869476 646.945862,69.515823 646.739502,68.214508 
	C646.249390,65.124588 644.290710,63.013081 641.267639,64.013290 
	C639.465088,64.609650 637.034241,67.057213 637.009827,68.704071 
	C636.729004,87.663338 636.669128,106.631523 636.962341,125.590958 
	C637.085205,133.535004 642.226013,138.838684 650.672974,140.501450 
M620.169556,96.630981 
	C620.169556,95.964966 620.153748,95.298515 620.172241,94.633018 
	C620.277649,90.853058 620.482544,86.716370 615.194092,86.651764 
	C609.997681,86.588287 609.944580,90.520912 609.968567,94.432770 
	C610.048096,107.419609 610.065430,120.407806 609.956665,133.394226 
	C609.925171,137.152786 610.618347,140.313843 615.009155,140.392960 
	C619.437805,140.472748 620.234375,137.341003 620.204468,133.560287 
	C620.109558,121.572731 620.169495,109.583946 620.169556,96.630981 
M610.420105,66.748589 
	C607.180603,72.092674 608.704529,77.594818 613.859924,77.774170 
	C616.187927,77.855148 619.504639,76.249619 620.688293,74.356194 
	C621.705444,72.729050 621.080994,69.096909 619.840820,67.254417 
	C617.689636,64.058426 614.233276,64.243706 610.420105,66.748589 
z"/>
<path fill="#16154B" opacity="1.000000" stroke="none" 
	d="
M53.004421,21.062935 
	C58.416271,17.804466 63.828121,14.545999 69.649689,11.648314 
	C70.165031,24.337191 70.270660,36.665287 70.281326,49.453068 
	C70.254608,57.272503 70.322845,64.632256 70.294022,72.449921 
	C70.294479,80.617508 70.392014,88.327179 70.369522,96.355721 
	C70.249504,98.182594 70.249504,99.690613 70.249504,100.231857 
	C81.387764,89.593018 92.693092,78.794609 104.305634,67.866806 
	C109.073814,63.482155 113.534782,59.226894 118.302765,54.964729 
	C119.057121,54.603218 119.504448,54.248619 119.927521,53.897720 
	C119.903275,53.901428 119.880219,53.857269 120.260849,53.937481 
	C123.074821,55.017342 125.508156,56.016991 127.995773,57.395676 
	C128.395523,59.521030 128.740982,61.267338 128.917542,63.316864 
	C127.498505,65.746437 126.248383,67.872787 124.703072,70.146515 
	C122.257011,72.518906 120.106140,74.743935 117.653748,77.108261 
	C114.572815,80.167107 111.793411,83.086670 108.701172,86.122116 
	C105.975372,88.844223 103.562416,91.450447 100.850174,94.199341 
	C99.708565,95.291290 98.866241,96.240585 97.940804,97.283546 
	C101.319038,101.416351 104.465897,105.266098 107.758598,109.437210 
	C112.476814,115.545242 117.049194,121.331909 121.765167,127.439392 
	C125.628754,133.490646 129.348755,139.221069 132.988998,145.312225 
	C132.538040,147.094131 132.166840,148.515305 131.601685,150.043015 
	C131.181778,150.355698 131.036560,150.608276 130.642517,151.098465 
	C126.720268,154.439987 122.861465,152.893417 118.973373,151.592010 
	C116.677429,148.471817 114.443733,145.688126 112.017960,142.620453 
	C109.623077,139.523163 107.420273,136.709854 105.101608,133.590912 
	C103.747025,131.817703 102.508301,130.350113 101.078690,128.610870 
	C99.623764,126.884224 98.359726,125.429214 97.023926,123.637390 
	C95.306702,121.197533 93.661247,119.094475 91.892838,116.676514 
	C89.904694,113.924934 88.039505,111.488266 85.726357,108.466385 
	C80.681976,113.690384 76.038002,118.365082 71.590408,123.219704 
	C70.704582,124.186592 70.173416,125.836838 70.157204,127.180168 
	C70.085533,133.116150 70.261665,139.055130 70.261017,145.369904 
	C69.583427,151.273636 65.876236,153.040421 60.624397,153.259033 
	C57.927662,151.082581 55.583984,149.016739 53.229095,146.485504 
	C53.128471,138.345490 53.039062,130.670837 53.010124,122.530991 
	C53.028057,112.709465 52.985523,103.353119 53.006744,93.531944 
	C53.025715,83.710594 52.980930,74.354073 53.003723,64.533150 
	C53.024193,55.711559 52.977085,47.354374 53.000450,38.533947 
	C53.048756,32.401451 53.026588,26.732193 53.004421,21.062935 
z"/>
<path fill="#1D1B4F" opacity="1.000000" stroke="none" 
	d="
M466.984680,104.000000 
	C466.984680,92.344780 467.068512,81.188614 466.943604,70.034790 
	C466.893585,65.570999 468.778839,63.623856 473.225128,63.789963 
	C481.857452,64.112457 490.693939,63.221485 499.089722,64.767395 
	C518.354126,68.314537 529.397949,84.736534 527.949341,105.847656 
	C526.660156,124.634842 513.249756,138.580780 494.549622,140.104752 
	C487.436676,140.684418 480.255249,140.467773 473.104370,140.521393 
	C468.784821,140.553787 466.872101,138.379440 466.938568,133.969086 
	C467.086548,124.148056 466.984711,114.323265 466.984680,104.000000 
M494.845215,130.872498 
	C514.780945,127.254517 520.697144,107.886765 517.020081,94.224098 
	C512.021729,75.652016 497.756470,70.703644 477.825195,73.627197 
	C477.825195,92.682175 477.825195,111.721573 477.825195,130.949005 
	C483.390442,130.949005 488.674255,130.949005 494.845215,130.872498 
z"/>
<path fill="#27A5DD" opacity="1.000000" stroke="none" 
	d="
M52.659996,21.114700 
	C53.026588,26.732193 53.048756,32.401451 52.635826,38.540199 
	C51.141819,39.662556 49.782001,40.086098 49.078201,41.009594 
	C46.574730,44.294537 44.260723,47.726650 41.935688,51.144333 
	C29.929138,68.793350 17.966459,86.472351 5.893760,104.075935 
	C5.041496,105.318657 3.426679,106.038414 2.166446,107.001350 
	C2.114035,92.563713 1.571437,78.105270 2.183110,63.695820 
	C2.584808,54.232883 7.810052,46.853195 16.115751,42.018780 
	C28.150738,35.013687 40.246010,28.112165 52.659996,21.114700 
z"/>
<path fill="#1D1C50" opacity="1.000000" stroke="none" 
	d="
M347.214661,93.034798 
	C358.715393,84.341530 371.084656,83.753662 380.891144,91.636063 
	C390.013397,98.968536 393.213287,114.169228 387.988495,125.351387 
	C382.477051,137.147095 370.007355,143.074219 356.851074,140.151703 
	C344.609955,137.432480 336.204681,126.751923 336.156982,113.700829 
	C336.104645,99.388176 336.165619,85.075142 336.130524,70.762390 
	C336.121796,67.192894 336.321747,63.925209 341.100433,63.809761 
	C346.198730,63.686584 346.482635,67.225441 346.538086,70.912735 
	C346.648071,78.225624 346.721008,85.539078 347.214661,93.034798 
M351.476166,127.047363 
	C352.252014,127.674736 352.976288,128.382874 353.811890,128.916748 
	C360.667664,133.297119 369.276001,132.542221 374.979889,127.095352 
	C380.750000,121.585251 382.206879,111.695999 378.308044,104.504059 
	C374.349579,97.202011 366.936768,93.895103 358.993713,95.887733 
	C346.095856,99.123352 341.982635,114.802811 351.476166,127.047363 
z"/>
<path fill="#18164B" opacity="1.000000" stroke="none" 
	d="
M244.740417,114.233215 
	C248.909149,119.875648 252.824631,125.261185 256.806946,130.596832 
	C259.023468,133.566605 260.233093,136.826691 256.878571,139.398605 
	C253.394928,142.069565 250.842026,139.744781 248.655777,136.744995 
	C240.943848,126.163292 233.127930,115.657387 225.358475,105.132225 
	C220.068451,108.475159 217.357956,112.537102 218.058243,118.859947 
	C218.623306,123.961922 218.113907,129.177368 218.191025,134.340805 
	C218.244095,137.893127 216.795914,140.343079 213.135818,140.394073 
	C209.559036,140.443878 207.816727,138.216934 207.820343,134.587631 
	C207.841934,112.929581 207.836685,91.271492 207.823715,69.613419 
	C207.821594,66.069534 209.195145,63.829254 213.055908,63.840012 
	C216.962494,63.850895 218.195587,66.181564 218.182404,69.694534 
	C218.148819,78.634773 218.171219,87.575226 218.171219,97.436165 
	C219.874207,95.974564 220.987717,95.135666 221.966034,94.161087 
	C231.172272,84.990082 240.384491,75.824699 249.525833,66.589264 
	C251.975952,64.113907 254.905258,62.233490 257.736633,64.856537 
	C260.845551,67.736679 259.014832,70.871445 256.403900,73.456459 
	C248.480667,81.301094 240.586105,89.174675 232.406631,97.309219 
	C236.556152,103.013832 240.535614,108.484650 244.740417,114.233215 
z"/>
<path fill="#1B194E" opacity="1.000000" stroke="none" 
	d="
M546.410278,95.446869 
	C555.590576,86.277809 567.426575,83.477333 578.107971,88.328491 
	C589.229370,93.379494 594.470581,102.337410 594.206726,114.581154 
	C594.074158,120.730728 594.141174,126.885925 594.200134,133.037796 
	C594.233276,136.497253 594.391357,140.106903 589.694824,140.435333 
	C584.972229,140.765594 583.827820,137.594391 583.888184,134.616470 
	C578.478882,136.629974 572.962036,139.782883 567.115662,140.611740 
	C557.434021,141.984390 549.448792,137.658249 544.375305,129.291077 
	C538.520569,119.635277 538.299561,109.504181 543.689331,99.434074 
	C544.389526,98.125732 545.337891,96.950195 546.410278,95.446869 
M583.818298,108.310562 
	C583.481384,107.372459 583.214478,106.401894 582.796692,105.501312 
	C578.758972,96.795776 569.248230,92.954147 560.719177,96.559563 
	C551.844177,100.311226 547.554626,110.991364 551.120850,120.457619 
	C554.430908,129.243912 563.812683,133.815155 572.592224,130.919510 
	C581.170959,128.090088 585.321899,120.151619 583.818298,108.310562 
z"/>
<path fill="#1B194E" opacity="1.000000" stroke="none" 
	d="
M430.003479,140.848022 
	C418.719360,140.520111 410.024628,136.138336 405.223694,126.253311 
	C400.383881,116.288246 401.091797,106.155586 407.326294,96.850319 
	C413.546387,87.566551 426.372314,83.742546 437.605713,87.423035 
	C447.235291,90.578056 453.539856,100.221703 453.559387,111.564751 
	C453.566467,115.664742 451.525726,117.205437 447.685791,117.190903 
	C437.525757,117.152428 427.365509,117.181076 417.205322,117.182907 
	C415.586121,117.183205 413.966949,117.182953 412.309357,117.182953 
	C413.649323,128.722672 426.016541,135.244431 437.403931,130.697296 
	C439.087585,130.025009 440.596405,128.327911 442.231964,128.263077 
	C444.543762,128.171494 447.658630,128.416153 449.061401,129.853241 
	C451.323669,132.170898 449.329987,134.879547 446.905487,135.783371 
	C441.537598,137.784470 435.949951,139.196045 430.003479,140.848022 
M440.000610,99.519691 
	C434.983887,94.309898 428.899109,93.876183 422.502625,95.986710 
	C416.449036,97.984123 413.262665,102.549667 412.030853,108.852074 
	C422.815338,108.852074 433.285370,108.852074 444.803864,108.852074 
	C443.194672,105.586174 441.841064,102.838928 440.000610,99.519691 
z"/>
<path fill="#26A0D9" opacity="1.000000" stroke="none" 
	d="
M2.099712,107.465759 
	C3.426679,106.038414 5.041496,105.318657 5.893760,104.075935 
	C17.966459,86.472351 29.929138,68.793350 41.935688,51.144333 
	C44.260723,47.726650 46.574730,44.294537 49.078201,41.009594 
	C49.782001,40.086098 51.141819,39.662556 52.565353,39.003441 
	C52.977085,47.354374 53.024193,55.711559 52.660229,64.574455 
	C51.143494,66.248329 49.854168,67.291306 48.959698,68.603439 
	C35.406578,88.485176 21.945389,108.429741 8.341038,128.276215 
	C6.638000,130.760666 4.242817,132.770691 2.168337,135.000534 
	C2.123218,125.977074 2.078098,116.953621 2.099712,107.465759 
z"/>
<path fill="#2798D4" opacity="1.000000" stroke="none" 
	d="
M2.101272,135.453735 
	C4.242817,132.770691 6.638000,130.760666 8.341038,128.276215 
	C21.945389,108.429741 35.406578,88.485176 48.959698,68.603439 
	C49.854168,67.291306 51.143494,66.248329 52.592651,65.038857 
	C52.980930,74.354073 53.025715,83.710594 52.662880,93.571487 
	C50.525150,96.006439 48.560547,97.775436 47.101582,99.892838 
	C34.027557,118.867134 21.042522,137.902740 8.031322,156.920319 
	C2.700697,150.866669 1.459567,143.645905 2.101272,135.453735 
z"/>
<path fill="#211F52" opacity="1.000000" stroke="none" 
	d="
M278.975403,120.327629 
	C282.290100,130.290833 291.441956,134.327911 300.575806,130.262039 
	C305.827301,127.924370 308.512909,123.975510 308.459747,118.132172 
	C308.383942,109.800644 308.489410,101.467506 308.419769,93.135872 
	C308.387421,89.263168 309.589752,86.400345 313.950775,86.524551 
	C318.126129,86.643478 318.897247,89.635376 318.883820,93.174957 
	C318.834473,106.173035 318.876343,119.171425 318.855682,132.169662 
	C318.850739,135.283249 319.531128,139.367050 315.434784,139.899033 
	C312.877106,140.231186 310.009308,138.175705 306.644897,136.962372 
	C303.391663,138.015793 298.972076,140.240448 294.351776,140.796097 
	C279.763214,142.550476 268.816711,132.879059 268.204315,117.928001 
	C267.856781,109.443306 268.158142,100.932762 268.126526,92.434021 
	C268.113342,88.890503 269.580994,86.534828 273.305359,86.515366 
	C277.062988,86.495712 278.506195,88.937614 278.552490,92.424355 
	C278.674042,101.581551 278.796356,110.738724 278.975403,120.327629 
z"/>
<path fill="#1D1B4F" opacity="1.000000" stroke="none" 
	d="
M664.115967,99.928986 
	C662.940735,97.687119 661.934448,95.779358 660.935669,93.867630 
	C659.451538,91.027092 659.959595,88.555405 662.837891,87.146591 
	C665.640930,85.774612 667.978271,86.673492 669.436523,89.577545 
	C673.978882,98.623009 678.542969,107.657578 683.111267,116.689949 
	C684.285156,119.010963 685.506042,121.308212 687.180054,124.530014 
	C691.913635,113.898315 696.251648,104.153908 700.591125,94.410156 
	C701.266296,92.894104 702.006714,91.404106 702.615112,89.861893 
	C703.954407,86.467140 706.527649,85.879814 709.497864,87.158775 
	C712.577698,88.484924 712.721619,91.089302 711.548889,93.881470 
	C710.778503,95.715775 709.916565,97.511452 709.108215,99.330040 
	C700.214294,119.340172 691.404480,139.388672 682.303223,159.304031 
	C681.404419,161.270920 678.828613,163.532089 676.852478,163.713882 
	C673.296021,164.041061 671.472351,160.586243 672.937988,157.062683 
	C675.485229,150.938705 678.518677,145.006012 680.824402,138.798523 
	C681.614319,136.671997 681.622009,133.573151 680.639587,131.584030 
	C675.425354,121.026451 669.782593,110.680550 664.115967,99.928986 
z"/>
<path fill="#278FCE" opacity="1.000000" stroke="none" 
	d="
M8.133390,157.245178 
	C21.042522,137.902740 34.027557,118.867134 47.101582,99.892838 
	C48.560547,97.775436 50.525150,96.006439 52.599129,94.036316 
	C52.985523,103.353119 53.028057,112.709465 52.667122,122.569534 
	C50.756973,124.541733 48.976345,125.818260 47.790157,127.511284 
	C42.084183,135.655273 36.429832,143.840332 30.977148,152.155075 
	C27.728249,157.109299 24.885595,162.329910 21.860313,167.430771 
	C17.318697,164.143845 12.777079,160.856934 8.133390,157.245178 
z"/>
<path fill="#A6A7AB" opacity="1.000000" stroke="none" 
	d="
M103.998421,67.996201 
	C92.693092,78.794609 81.387764,89.593018 70.249504,100.231857 
	C70.249504,99.690613 70.249504,98.182594 70.773087,96.326584 
	C72.420517,94.879333 73.910973,93.974335 74.612091,92.651108 
	C82.477150,77.807259 90.203781,62.890141 98.002274,48.010883 
	C104.317535,35.961559 110.679955,23.936945 117.021446,11.901367 
	C120.570908,13.650585 124.120369,15.399804 127.835342,17.785522 
	C122.965828,28.158403 117.772217,37.817097 112.951088,47.658276 
	C109.695168,54.304478 106.964203,61.207859 103.998421,67.996201 
z"/>
<path fill="#AFB0B3" opacity="1.000000" stroke="none" 
	d="
M116.888191,11.589263 
	C110.679955,23.936945 104.317535,35.961559 98.002274,48.010883 
	C90.203781,62.890141 82.477150,77.807259 74.612091,92.651108 
	C73.910973,93.974335 72.420517,94.879333 70.893097,96.007721 
	C70.392014,88.327179 70.294479,80.617508 70.638321,72.439888 
	C73.030846,69.698387 75.477814,67.688934 76.852409,65.108261 
	C85.560181,48.760326 93.947525,32.241741 102.649696,15.890747 
	C104.387497,12.625508 107.028336,9.840884 109.252777,6.834644 
	C111.753494,8.315481 114.254219,9.796319 116.888191,11.589263 
z"/>
<path fill="#2882C5" opacity="1.000000" stroke="none" 
	d="
M107.612755,109.115845 
	C104.465897,105.266098 101.319038,101.416351 97.940804,97.283546 
	C98.866241,96.240585 99.708565,95.291290 101.201202,94.227585 
	C120.718567,101.738121 139.562790,109.420273 158.462830,116.962563 
	C167.196472,120.447838 176.039078,123.660065 184.832291,126.996094 
	C184.877243,130.360153 184.922211,133.724228 184.513092,137.542542 
	C183.084473,137.844116 182.039047,137.869019 181.145935,137.512436 
	C164.077820,130.697891 147.064224,123.745224 129.956604,117.031960 
	C122.605225,114.147179 115.066414,111.740005 107.612755,109.115845 
z"/>
<path fill="#2879BF" opacity="1.000000" stroke="none" 
	d="
M184.899887,126.542213 
	C176.039078,123.660065 167.196472,120.447838 158.462830,116.962563 
	C139.562790,109.420273 120.718567,101.738121 101.500488,94.084915 
	C103.562416,91.450447 105.975372,88.844223 109.063065,86.161797 
	C116.160698,88.724655 122.556473,91.432175 129.011627,93.989830 
	C147.605179,101.356934 166.222717,108.663551 184.830826,115.993935 
	C184.876373,119.358734 184.921936,122.723541 184.899887,126.542213 
z"/>
<path fill="#296EB7" opacity="1.000000" stroke="none" 
	d="
M184.898529,115.535278 
	C166.222717,108.663551 147.605179,101.356934 129.011627,93.989830 
	C122.556473,91.432175 116.160698,88.724655 109.375908,86.045914 
	C111.793411,83.086670 114.572815,80.167107 117.980263,77.256470 
	C133.975861,83.528061 149.301788,89.895828 164.730499,96.003998 
	C171.321121,98.613197 178.126114,100.680893 184.833679,102.994652 
	C184.877869,107.021973 184.922043,111.049301 184.898529,115.535278 
z"/>
<path fill="#288BCB" opacity="1.000000" stroke="none" 
	d="
M107.758598,109.437202 
	C115.066414,111.740005 122.605225,114.147179 129.956604,117.031960 
	C147.064224,123.745224 164.077820,130.697891 181.145935,137.512436 
	C182.039047,137.869019 183.084473,137.844116 184.445541,137.996262 
	C184.339844,141.786285 183.847595,145.576874 182.770691,149.639236 
	C167.152405,143.905701 152.157074,137.801544 137.063538,131.950699 
	C132.045822,130.005630 126.776085,128.710724 121.621567,127.118584 
	C117.049194,121.331909 112.476814,115.545242 107.758598,109.437202 
z"/>
<path fill="#1B194E" opacity="1.000000" stroke="none" 
	d="
M650.297119,140.424393 
	C642.226013,138.838684 637.085205,133.535004 636.962341,125.590958 
	C636.669128,106.631523 636.729004,87.663338 637.009827,68.704071 
	C637.034241,67.057213 639.465088,64.609650 641.267639,64.013290 
	C644.290710,63.013081 646.249390,65.124588 646.739502,68.214508 
	C646.945862,69.515823 646.844849,70.869476 646.845276,72.199348 
	C646.850708,88.502228 646.832336,104.805122 646.856201,121.107971 
	C646.867004,128.484604 647.453491,128.938965 654.457886,130.659927 
	C655.972351,131.032043 658.035767,133.075623 658.105164,134.438019 
	C658.192444,136.152496 656.842102,138.355057 655.444458,139.593719 
	C654.403442,140.516327 652.302124,140.242462 650.297119,140.424393 
z"/>
<path fill="#2B4FA2" opacity="1.000000" stroke="none" 
	d="
M112.210030,142.904449 
	C114.443733,145.688126 116.677429,148.471817 118.928490,151.949448 
	C109.415787,166.813568 99.849930,180.959915 90.388367,195.175659 
	C88.668320,197.759995 87.374756,200.628159 85.884308,203.365295 
	C81.927834,201.504211 77.971352,199.643112 74.114822,197.324280 
	C81.204086,186.791473 88.145538,176.682770 95.197937,166.652054 
	C100.798225,158.686676 106.534264,150.816757 112.210030,142.904449 
z"/>
<path fill="#B4B5B8" opacity="1.000000" stroke="none" 
	d="
M109.027832,6.557982 
	C107.028336,9.840884 104.387497,12.625508 102.649696,15.890747 
	C93.947525,32.241741 85.560181,48.760326 76.852409,65.108261 
	C75.477814,67.688934 73.030846,69.698387 70.735390,71.981979 
	C70.322845,64.632256 70.254608,57.272503 70.628021,49.442825 
	C72.230888,47.948524 73.769684,47.137108 74.488197,45.863079 
	C77.670334,40.220695 80.530991,34.397907 83.668617,28.729309 
	C88.478439,20.039619 93.420242,11.422983 98.306030,2.775341 
	C101.804977,3.943999 105.303932,5.112659 109.027832,6.557982 
z"/>
<path fill="#2A5CAB" opacity="1.000000" stroke="none" 
	d="
M112.017960,142.620453 
	C106.534264,150.816757 100.798225,158.686676 95.197937,166.652054 
	C88.145538,176.682770 81.204086,186.791473 73.895355,197.045151 
	C70.813133,195.732452 68.050331,194.241135 65.235458,192.148102 
	C77.640022,173.054642 90.084953,154.554962 102.588287,136.094833 
	C103.204117,135.185593 104.329407,134.621414 105.217468,133.896545 
	C107.420273,136.709854 109.623077,139.523163 112.017960,142.620453 
z"/>
<path fill="#2D3993" opacity="1.000000" stroke="none" 
	d="
M130.972076,150.907257 
	C131.036560,150.608276 131.181778,150.355698 131.967651,150.036789 
	C133.082336,149.507828 133.637085,149.091614 134.434814,148.972351 
	C135.466660,153.181122 136.255524,157.092926 136.990082,161.425842 
	C136.230667,171.546097 132.783630,180.090195 126.298508,187.396759 
	C125.359558,188.454636 124.738899,189.794983 123.970947,191.004608 
	C123.970940,191.004608 123.986931,190.980408 123.665237,190.957016 
	C122.889557,191.389160 122.435562,191.844696 121.981567,192.300232 
	C114.247398,196.213486 106.513229,200.126755 98.428223,203.634033 
	C98.399513,202.464996 98.604424,201.622238 99.061104,200.950684 
	C108.009041,187.792816 117.083481,174.719452 125.887604,161.466415 
	C128.028793,158.243225 129.300552,154.442459 130.972076,150.907257 
z"/>
<path fill="#2A61AE" opacity="1.000000" stroke="none" 
	d="
M184.900970,102.544617 
	C178.126114,100.680893 171.321121,98.613197 164.730499,96.003998 
	C149.301788,89.895828 133.975861,83.528061 118.281799,77.117188 
	C120.106140,74.743935 122.257011,72.518906 125.087570,70.153915 
	C126.711876,70.282501 127.687096,70.473267 128.596603,70.831070 
	C147.346191,78.207161 166.088287,85.602264 184.831879,92.993591 
	C184.877335,96.027260 184.922775,99.060921 184.900970,102.544617 
z"/>
<path fill="#2971B9" opacity="1.000000" stroke="none" 
	d="
M60.977455,153.369614 
	C65.876236,153.040421 69.583427,151.273636 70.601227,145.362366 
	C72.316574,143.863449 73.886711,142.949753 74.846474,141.601562 
	C80.647079,133.453354 86.308098,125.205765 92.015793,116.991417 
	C93.661247,119.094475 95.306702,121.197533 96.676727,123.688721 
	C95.902260,124.474846 95.270515,124.781311 94.923668,125.284248 
	C86.868538,136.964325 78.782333,148.623795 70.835182,160.377213 
	C65.124496,168.823029 59.607098,177.399521 54.003479,185.917725 
	C51.171738,184.373138 48.339993,182.828568 45.303291,180.698639 
	C47.929127,175.710037 50.883579,171.380264 53.555595,166.882675 
	C56.178913,162.467056 58.515205,157.880920 60.977455,153.369614 
z"/>
<path fill="#2791CF" opacity="1.000000" stroke="none" 
	d="
M121.765167,127.439392 
	C126.776085,128.710724 132.045822,130.005630 137.063538,131.950699 
	C152.157074,137.801544 167.152405,143.905701 182.545898,149.953110 
	C180.580688,153.459824 178.255646,156.924454 175.492126,160.250839 
	C174.696426,159.771133 174.398926,159.283096 173.973236,159.109528 
	C161.830276,154.158813 149.691177,149.197159 137.487823,144.399078 
	C136.546463,144.028961 135.138168,144.846390 133.727631,145.070389 
	C133.508347,145.028931 133.068756,144.951508 133.068756,144.951508 
	C129.348755,139.221069 125.628754,133.490646 121.765167,127.439392 
z"/>
<path fill="#B9BABD" opacity="1.000000" stroke="none" 
	d="
M97.955330,2.530231 
	C93.420242,11.422983 88.478439,20.039619 83.668617,28.729309 
	C80.530991,34.397907 77.670334,40.220695 74.488197,45.863079 
	C73.769684,47.137108 72.230888,47.948524 70.722992,48.983139 
	C70.270660,36.665287 70.165031,24.337191 69.972290,11.553755 
	C78.329254,5.657899 86.794754,0.284780 97.955330,2.530231 
z"/>
<path fill="#2D4399" opacity="1.000000" stroke="none" 
	d="
M130.642532,151.098465 
	C129.300552,154.442459 128.028793,158.243225 125.887604,161.466415 
	C117.083481,174.719452 108.009041,187.792816 99.061104,200.950684 
	C98.604424,201.622238 98.399513,202.464996 98.038940,203.578461 
	C94.171326,203.877777 90.342148,203.826675 86.198639,203.570435 
	C87.374756,200.628159 88.668320,197.759995 90.388367,195.175659 
	C99.849930,180.959915 109.415787,166.813568 118.990738,152.285980 
	C122.861465,152.893417 126.720268,154.439987 130.642532,151.098465 
z"/>
<path fill="#2885C7" opacity="1.000000" stroke="none" 
	d="
M22.083771,167.667603 
	C24.885595,162.329910 27.728249,157.109299 30.977148,152.155075 
	C36.429832,143.840332 42.084183,135.655273 47.790157,127.511284 
	C48.976345,125.818260 50.756973,124.541733 52.606651,123.034721 
	C53.039062,130.670837 53.128471,138.345490 52.858582,146.527191 
	C50.105427,150.057144 47.494450,152.935455 45.364609,156.134125 
	C41.389664,162.103851 37.694283,168.259720 33.882568,174.338120 
	C30.024120,172.193542 26.165676,170.048981 22.083771,167.667603 
z"/>
<path fill="#2898D4" opacity="1.000000" stroke="none" 
	d="
M133.946899,145.111847 
	C135.138168,144.846390 136.546463,144.028961 137.487823,144.399078 
	C149.691177,149.197159 161.830276,154.158813 173.973236,159.109528 
	C174.398926,159.283096 174.696426,159.771133 175.227386,160.501083 
	C170.590515,163.928726 165.779938,166.967880 160.293213,169.919128 
	C152.092819,166.889053 144.568604,163.946899 137.044388,161.004761 
	C136.255524,157.092926 135.466660,153.181122 134.390854,148.622238 
	C134.051575,147.020737 133.999237,146.066284 133.946899,145.111847 
z"/>
<path fill="#16144A" opacity="1.000000" stroke="none" 
	d="
M620.169556,97.113312 
	C620.169495,109.583946 620.109558,121.572731 620.204468,133.560287 
	C620.234375,137.341003 619.437805,140.472748 615.009155,140.392960 
	C610.618347,140.313843 609.925171,137.152786 609.956665,133.394226 
	C610.065430,120.407806 610.048096,107.419609 609.968567,94.432770 
	C609.944580,90.520912 609.997681,86.588287 615.194092,86.651764 
	C620.482544,86.716370 620.277649,90.853058 620.172241,94.633018 
	C620.153748,95.298515 620.169556,95.964966 620.169556,97.113312 
z"/>
<path fill="#296AB5" opacity="1.000000" stroke="none" 
	d="
M54.254753,186.148438 
	C59.607098,177.399521 65.124496,168.823029 70.835182,160.377213 
	C78.782333,148.623795 86.868538,136.964325 94.923668,125.284248 
	C95.270515,124.781311 95.902260,124.474846 96.748489,124.025536 
	C98.359726,125.429214 99.623764,126.884224 100.744354,128.760834 
	C99.549210,130.435776 98.389320,131.614288 97.462708,132.954147 
	C88.998764,145.192673 80.480530,157.395477 72.179222,169.743881 
	C67.863998,176.162872 63.952850,182.853516 59.859177,189.421448 
	C58.074795,188.407349 56.290413,187.393250 54.254753,186.148438 
z"/>
<path fill="#2A55A6" opacity="1.000000" stroke="none" 
	d="
M184.900345,92.547958 
	C166.088287,85.602264 147.346191,78.207161 128.596603,70.831070 
	C127.687096,70.473267 126.711876,70.282501 125.382751,70.006554 
	C126.248383,67.872787 127.498505,65.746437 129.280640,63.356758 
	C141.644562,67.774460 153.444473,72.538750 165.321167,77.103195 
	C171.757416,79.576775 178.324585,81.709755 184.832687,83.996376 
	C184.878067,86.698357 184.923431,89.400345 184.900345,92.547958 
z"/>
<path fill="#2A64B1" opacity="1.000000" stroke="none" 
	d="
M60.068802,189.667664 
	C63.952850,182.853516 67.863998,176.162872 72.179222,169.743881 
	C80.480530,157.395477 88.998764,145.192673 97.462708,132.954147 
	C98.389320,131.614288 99.549210,130.435776 100.935242,129.032471 
	C102.508301,130.350113 103.747025,131.817703 105.101608,133.590912 
	C104.329407,134.621414 103.204117,135.185593 102.588287,136.094833 
	C90.084953,154.554962 77.640022,173.054642 65.042229,191.875565 
	C63.360188,191.441116 61.819309,190.677505 60.068802,189.667664 
z"/>
<path fill="#2D4399" opacity="1.000000" stroke="none" 
	d="
M127.941490,57.016640 
	C125.508156,56.016991 123.074821,55.017342 120.358894,53.656868 
	C120.732880,52.566257 121.389458,51.836472 122.373611,50.981049 
	C125.073441,49.793064 127.445686,48.730721 129.988525,48.014515 
	C131.221313,49.118958 132.184525,50.122871 133.361206,50.597134 
	C143.805313,54.806549 154.254166,59.008678 164.771240,63.030830 
	C170.450012,65.202614 176.264542,67.019402 182.276001,69.220825 
	C183.332047,71.332565 184.129929,73.219818 184.927795,75.107063 
	C184.970764,75.532715 185.013718,75.958366 184.574936,76.693222 
	C182.638779,76.780884 181.081451,76.821083 179.746262,76.296219 
	C169.448227,72.248009 159.251907,67.935181 148.904221,64.021225 
	C142.018600,61.416790 134.935944,59.333305 127.941490,57.016640 
z"/>
<path fill="#297BC0" opacity="1.000000" stroke="none" 
	d="
M34.092957,174.591461 
	C37.694283,168.259720 41.389664,162.103851 45.364609,156.134125 
	C47.494450,152.935455 50.105427,150.057144 52.869797,146.992569 
	C55.583984,149.016739 57.927662,151.082581 60.624397,153.259033 
	C58.515205,157.880920 56.178913,162.467056 53.555595,166.882675 
	C50.883579,171.380264 47.929127,175.710037 45.054535,180.453033 
	C41.441605,178.810135 37.872475,176.827469 34.092957,174.591461 
z"/>
<path fill="#A0A1A4" opacity="1.000000" stroke="none" 
	d="
M122.046036,51.106689 
	C121.389458,51.836472 120.732880,52.566257 119.978256,53.576656 
	C119.880219,53.857269 119.903275,53.901428 119.623383,53.885712 
	C118.894241,54.237209 118.444992,54.604420 117.995743,54.971634 
	C113.534782,59.226894 109.073814,63.482155 104.305634,67.866806 
	C106.964203,61.207859 109.695168,54.304478 112.951088,47.658276 
	C117.772217,37.817097 122.965828,28.158403 128.058243,18.029196 
	C130.300217,18.811857 132.484787,19.987343 134.853516,21.815496 
	C133.989227,24.857271 132.969513,27.259466 131.887009,29.633022 
	C128.619781,36.796883 125.328148,43.949619 122.046036,51.106689 
z"/>
<path fill="#2A9FD8" opacity="1.000000" stroke="none" 
	d="
M136.990082,161.425842 
	C144.568604,163.946899 152.092819,166.889053 159.954803,169.989655 
	C148.424088,177.087708 136.555603,184.027313 124.329025,190.985764 
	C124.738899,189.794983 125.359558,188.454636 126.298508,187.396759 
	C132.783630,180.090195 136.230667,171.546097 136.990082,161.425842 
z"/>
<path fill="#2B4CA0" opacity="1.000000" stroke="none" 
	d="
M127.995773,57.395683 
	C134.935944,59.333305 142.018600,61.416790 148.904221,64.021225 
	C159.251907,67.935181 169.448227,72.248009 179.746262,76.296219 
	C181.081451,76.821083 182.638779,76.780884 184.496918,77.005997 
	C184.924271,79.049538 184.947937,81.089523 184.902130,83.562943 
	C178.324585,81.709755 171.757416,79.576775 165.321167,77.103195 
	C153.444473,72.538750 141.644562,67.774460 129.449554,63.053543 
	C128.740982,61.267338 128.395523,59.521030 127.995773,57.395683 
z"/>
<path fill="#9A9A9D" opacity="1.000000" stroke="none" 
	d="
M122.373611,50.981049 
	C125.328148,43.949619 128.619781,36.796883 131.887009,29.633022 
	C132.969513,27.259466 133.989227,24.857271 135.071259,22.061415 
	C137.945389,23.217421 140.785919,24.780178 143.817169,26.991543 
	C143.383224,29.324478 142.879440,31.066376 142.110214,32.681881 
	C140.136658,36.826645 138.045227,40.915283 135.694794,45.179363 
	C133.531754,46.111038 131.674835,46.889713 129.817932,47.668381 
	C127.445686,48.730721 125.073441,49.793064 122.373611,50.981049 
z"/>
<path fill="#88888E" opacity="1.000000" stroke="none" 
	d="
M152.102524,31.439873 
	C155.619293,33.396687 159.136063,35.353508 162.804764,37.954796 
	C161.528076,41.141026 160.099442,43.682785 158.272491,46.184517 
	C153.910294,45.599094 149.946396,45.053699 145.995392,44.163040 
	C148.039703,39.691803 150.071121,35.565838 152.102524,31.439873 
z"/>
<path fill="#939496" opacity="1.000000" stroke="none" 
	d="
M151.881866,31.221512 
	C150.071121,35.565838 148.039703,39.691803 145.550201,44.259666 
	C142.061707,44.809834 139.031326,44.918098 136.000931,45.026360 
	C138.045227,40.915283 140.136658,36.826645 142.110214,32.681881 
	C142.879440,31.066376 143.383224,29.324478 144.025024,27.252903 
	C146.581818,28.244822 149.121521,29.623987 151.881866,31.221512 
z"/>
<path fill="#1D1B4F" opacity="1.000000" stroke="none" 
	d="
M610.710510,66.494217 
	C614.233276,64.243706 617.689636,64.058426 619.840820,67.254417 
	C621.080994,69.096909 621.705444,72.729050 620.688293,74.356194 
	C619.504639,76.249619 616.187927,77.855148 613.859924,77.774170 
	C608.704529,77.594818 607.180603,72.092674 610.710510,66.494217 
z"/>
<path fill="#797A7C" opacity="1.000000" stroke="none" 
	d="
M173.347382,43.854877 
	C175.309052,45.793518 177.270721,47.732166 179.159332,50.412292 
	C177.687637,53.117939 176.289001,55.082096 174.604401,56.891853 
	C172.202194,54.863976 170.085938,52.990501 168.009827,50.750595 
	C169.815781,48.207737 171.581589,46.031307 173.347382,43.854877 
z"/>
<path fill="#6F6F73" opacity="1.000000" stroke="none" 
	d="
M174.890381,57.046257 
	C176.289001,55.082096 177.687637,53.117939 179.147156,50.735962 
	C183.888199,55.222645 185.215500,61.271317 185.170059,67.788528 
	C185.155228,69.915176 185.141037,72.041817 185.027161,74.637764 
	C184.129929,73.219818 183.332047,71.332565 182.237915,68.864670 
	C179.591232,64.538109 177.240799,60.792187 174.890381,57.046257 
z"/>
<path fill="#808183" opacity="1.000000" stroke="none" 
	d="
M173.134277,43.572426 
	C171.581589,46.031307 169.815781,48.207737 167.664581,50.668007 
	C164.409714,49.376083 161.540268,47.800312 158.670807,46.224545 
	C160.099442,43.682785 161.528076,41.141026 163.001221,38.227806 
	C166.337555,39.667557 169.629349,41.478767 173.134277,43.572426 
z"/>
<path fill="#2A9FD8" opacity="1.000000" stroke="none" 
	d="
M122.298279,192.227417 
	C122.435562,191.844696 122.889557,191.389160 123.679543,190.954575 
	C123.548683,191.368546 123.081833,191.761566 122.298279,192.227417 
z"/>
<path fill="#2876BB" opacity="1.000000" stroke="none" 
	d="
M91.892838,116.676514 
	C86.308098,125.205765 80.647079,133.453354 74.846474,141.601562 
	C73.886711,142.949753 72.316574,143.863449 70.688301,144.985474 
	C70.261665,139.055130 70.085533,133.116150 70.157204,127.180168 
	C70.173416,125.836838 70.704582,124.186592 71.590408,123.219704 
	C76.038002,118.365082 80.681976,113.690384 85.726357,108.466385 
	C88.039505,111.488266 89.904694,113.924934 91.892838,116.676514 
z"/>
<path fill="#2D4399" opacity="1.000000" stroke="none" 
	d="
M133.727631,145.070389 
	C133.999237,146.066284 134.051575,147.020737 134.147873,148.325287 
	C133.637085,149.091614 133.082336,149.507828 132.161621,149.930267 
	C132.166840,148.515305 132.538040,147.094131 132.988998,145.312225 
	C133.068756,144.951508 133.508347,145.028931 133.727631,145.070389 
z"/>
<path fill="#2D4399" opacity="1.000000" stroke="none" 
	d="
M118.302765,54.964729 
	C118.444992,54.604420 118.894241,54.237209 119.647629,53.882008 
	C119.504448,54.248619 119.057121,54.603218 118.302765,54.964729 
z"/>
<path fill="#FEFEFE" opacity="1.000000" stroke="none" 
	d="
M494.401672,130.910751 
	C488.674255,130.949005 483.390442,130.949005 477.825195,130.949005 
	C477.825195,111.721573 477.825195,92.682175 477.825195,73.627197 
	C497.756470,70.703644 512.021729,75.652016 517.020081,94.224098 
	C520.697144,107.886765 514.780945,127.254517 494.401672,130.910751 
z"/>
<path fill="#FCFCFD" opacity="1.000000" stroke="none" 
	d="
M351.216492,126.785675 
	C341.982635,114.802811 346.095856,99.123352 358.993713,95.887733 
	C366.936768,93.895103 374.349579,97.202011 378.308044,104.504059 
	C382.206879,111.695999 380.750000,121.585251 374.979889,127.095352 
	C369.276001,132.542221 360.667664,133.297119 353.811890,128.916748 
	C352.976288,128.382874 352.252014,127.674736 351.216492,126.785675 
z"/>
<path fill="#FCFCFD" opacity="1.000000" stroke="none" 
	d="
M583.895264,108.733131 
	C585.321899,120.151619 581.170959,128.090088 572.592224,130.919510 
	C563.812683,133.815155 554.430908,129.243912 551.120850,120.457619 
	C547.554626,110.991364 551.844177,100.311226 560.719177,96.559563 
	C569.248230,92.954147 578.758972,96.795776 582.796692,105.501312 
	C583.214478,106.401894 583.481384,107.372459 583.895264,108.733131 
z"/>
<path fill="#FCFCFD" opacity="1.000000" stroke="none" 
	d="
M440.244019,99.805695 
	C441.841064,102.838928 443.194672,105.586174 444.803864,108.852074 
	C433.285370,108.852074 422.815338,108.852074 412.030853,108.852074 
	C413.262665,102.549667 416.449036,97.984123 422.502625,95.986710 
	C428.899109,93.876183 434.983887,94.309898 440.244019,99.805695 
z"/>
<path fill="#2D3892" opacity="1.000000" stroke="none" 
	d="
M158.272491,46.184513 
	C161.540268,47.800312 164.409714,49.376083 167.624435,51.034439 
	C170.085938,52.990501 172.202194,54.863976 174.604401,56.891857 
	C177.240799,60.792187 179.591232,64.538109 181.979736,68.640190 
	C176.264542,67.019402 170.450012,65.202614 164.771240,63.030830 
	C154.254166,59.008678 143.805313,54.806549 133.361206,50.597134 
	C132.184525,50.122871 131.221313,49.118958 129.988525,48.014519 
	C131.674835,46.889713 133.531754,46.111038 135.694794,45.179363 
	C139.031326,44.918098 142.061707,44.809834 145.537308,44.604939 
	C149.946396,45.053699 153.910294,45.599094 158.272491,46.184513 
z"/>
</svg>