<svg xmlns="http://www.w3.org/2000/svg" xmlns:xlink="http://www.w3.org/1999/xlink" width="800" zoomAndPan="magnify" viewBox="0 0 600 599.999999" height="800" preserveAspectRatio="xMidYMid meet" version="1.0"><defs><g/><clipPath id="a4cdc223be"><path d="M 28.632812 195.855469 L 240.132812 195.855469 L 240.132812 407.355469 L 28.632812 407.355469 Z M 28.632812 195.855469 " clip-rule="nonzero"/></clipPath></defs><g clip-path="url(#a4cdc223be)"><path fill="#000000" d="M 30.085938 304.179688 L 38.96875 309.6875 C 39.039062 310.550781 39.125 311.421875 39.214844 312.277344 L 31.582031 319.398438 C 30.984375 319.960938 30.613281 320.753906 30.613281 321.628906 C 30.613281 322.933594 31.433594 324.042969 32.589844 324.484375 L 32.605469 324.492188 L 42.351562 328.140625 C 42.589844 328.984375 42.855469 329.824219 43.117188 330.660156 L 37.039062 339.113281 C 36.667969 339.613281 36.457031 340.230469 36.457031 340.910156 C 36.457031 342.425781 37.574219 343.683594 39.03125 343.914062 L 39.046875 343.914062 L 49.324219 345.578125 C 49.71875 346.355469 50.132812 347.121094 50.566406 347.890625 L 46.238281 357.378906 C 46.0625 357.757812 45.964844 358.191406 45.964844 358.648438 C 45.964844 360.332031 47.332031 361.699219 49.015625 361.699219 C 49.058594 361.699219 49.09375 361.699219 49.136719 361.699219 L 59.554688 361.328125 C 60.101562 362.007812 60.636719 362.675781 61.203125 363.335938 L 58.824219 373.515625 C 58.769531 373.726562 58.742188 373.972656 58.742188 374.210938 C 58.742188 375.902344 60.109375 377.261719 61.792969 377.261719 C 62.039062 377.261719 62.285156 377.234375 62.515625 377.171875 L 62.496094 377.171875 L 72.660156 374.785156 C 73.320312 375.347656 73.988281 375.886719 74.667969 376.421875 L 74.304688 386.867188 C 74.304688 386.910156 74.304688 386.953125 74.304688 387 C 74.304688 388.671875 75.664062 390.03125 77.335938 390.03125 C 77.804688 390.03125 78.246094 389.925781 78.640625 389.730469 L 78.625 389.738281 L 88.105469 385.421875 C 88.875 385.851562 89.640625 386.257812 90.414062 386.664062 L 92.089844 396.949219 C 92.335938 398.410156 93.597656 399.511719 95.113281 399.511719 C 95.773438 399.511719 96.390625 399.300781 96.894531 398.941406 L 96.882812 398.949219 L 105.335938 392.859375 C 106.171875 393.125 107 393.386719 107.847656 393.625 L 111.496094 403.382812 C 111.9375 404.5625 113.046875 405.382812 114.351562 405.382812 C 115.230469 405.382812 116.023438 405.003906 116.589844 404.394531 L 123.710938 396.761719 C 124.5625 396.859375 125.425781 396.9375 126.300781 397.019531 L 131.800781 405.902344 C 132.34375 406.792969 133.296875 407.355469 134.390625 407.355469 C 135.484375 407.355469 136.433594 406.78125 136.980469 405.929688 L 136.988281 405.917969 L 142.488281 397.035156 C 143.351562 396.957031 144.214844 396.878906 145.078125 396.78125 L 152.191406 404.414062 C 152.753906 405.003906 153.539062 405.363281 154.421875 405.363281 C 155.726562 405.363281 156.835938 404.554688 157.285156 403.40625 L 157.292969 403.390625 L 160.941406 393.632812 C 161.789062 393.394531 162.625 393.132812 163.453125 392.867188 L 171.90625 398.957031 C 172.40625 399.320312 173.023438 399.539062 173.695312 399.539062 C 175.210938 399.539062 176.46875 398.417969 176.699219 396.964844 L 176.699219 396.949219 L 178.375 386.664062 C 179.148438 386.265625 179.914062 385.84375 180.683594 385.421875 L 190.164062 389.738281 C 190.535156 389.90625 190.964844 390.003906 191.425781 390.003906 C 193.109375 390.003906 194.480469 388.628906 194.480469 386.945312 C 194.480469 386.910156 194.480469 386.882812 194.480469 386.859375 L 194.113281 376.414062 C 194.789062 375.878906 195.460938 375.332031 196.113281 374.777344 L 206.273438 377.171875 C 206.476562 377.226562 206.722656 377.253906 206.96875 377.253906 C 208.652344 377.253906 210.027344 375.878906 210.027344 374.195312 C 210.027344 373.957031 210 373.710938 209.949219 373.488281 L 209.949219 373.507812 L 207.558594 363.328125 C 208.117188 362.667969 208.671875 361.996094 209.199219 361.320312 L 219.632812 361.6875 C 219.675781 361.6875 219.722656 361.6875 219.773438 361.6875 C 221.449219 361.6875 222.804688 360.332031 222.804688 358.65625 C 222.804688 358.191406 222.699219 357.75 222.515625 357.351562 L 222.523438 357.371094 L 218.207031 347.878906 C 218.628906 347.113281 219.042969 346.347656 219.449219 345.570312 L 229.722656 343.90625 C 231.1875 343.648438 232.277344 342.390625 232.277344 340.882812 C 232.277344 340.214844 232.066406 339.597656 231.707031 339.09375 L 231.714844 339.101562 L 225.632812 330.652344 L 226.402344 328.132812 L 236.148438 324.484375 C 237.320312 324.035156 238.140625 322.933594 238.140625 321.617188 C 238.140625 320.738281 237.761719 319.945312 237.171875 319.390625 L 229.539062 312.269531 C 229.625 311.414062 229.714844 310.542969 229.785156 309.679688 L 238.660156 304.179688 C 239.539062 303.632812 240.121094 302.679688 240.121094 301.578125 C 240.121094 300.476562 239.539062 299.527344 238.667969 298.988281 L 238.660156 298.980469 L 238.640625 299.003906 L 229.769531 293.507812 C 229.671875 292.414062 229.601562 291.636719 229.53125 290.90625 L 237.152344 283.804688 C 237.742188 283.242188 238.105469 282.457031 238.105469 281.574219 C 238.105469 280.269531 237.292969 279.160156 236.148438 278.710938 L 236.128906 278.691406 L 226.382812 275.042969 C 226.074219 273.933594 225.847656 273.203125 225.625 272.507812 L 231.699219 264.074219 C 232.058594 263.570312 232.277344 262.953125 232.277344 262.285156 C 232.277344 260.769531 231.167969 259.507812 229.722656 259.277344 L 229.707031 259.277344 L 219.429688 257.613281 C 218.917969 256.601562 218.550781 255.929688 218.195312 255.285156 L 222.507812 245.8125 C 222.957031 244.851562 222.859375 243.726562 222.269531 242.851562 C 221.679688 241.980469 220.683594 241.460938 219.617188 241.496094 L 209.183594 241.855469 C 208.566406 241.074219 208.019531 240.421875 207.472656 239.785156 L 207.535156 239.855469 L 209.929688 229.6875 C 209.984375 229.484375 210.011719 229.238281 210.011719 228.992188 C 210.011719 227.296875 208.636719 225.933594 206.953125 225.933594 C 206.707031 225.933594 206.457031 225.960938 206.238281 226.011719 L 206.257812 226.011719 L 196.09375 228.410156 C 195.628906 228.011719 194.976562 227.476562 194.324219 226.9375 L 194.09375 226.761719 L 194.464844 216.316406 C 194.464844 216.273438 194.464844 216.230469 194.464844 216.175781 C 194.464844 214.503906 193.109375 213.144531 191.433594 213.144531 C 190.964844 213.144531 190.527344 213.25 190.128906 213.4375 L 190.148438 213.425781 L 180.664062 217.753906 C 179.898438 217.332031 179.132812 216.917969 178.355469 216.511719 L 176.679688 206.21875 C 176.425781 204.757812 175.164062 203.664062 173.660156 203.664062 C 172.988281 203.664062 172.371094 203.875 171.871094 204.234375 L 171.878906 204.226562 L 163.417969 210.316406 C 163.117188 210.195312 162.273438 209.929688 161.425781 209.691406 L 160.898438 209.558594 L 157.25 199.804688 C 156.792969 198.640625 155.679688 197.828125 154.386719 197.828125 C 153.511719 197.828125 152.71875 198.199219 152.164062 198.78125 L 145.054688 206.429688 C 144.542969 206.359375 143.660156 206.28125 142.761719 206.203125 L 142.472656 206.183594 L 136.972656 197.300781 C 136.425781 196.429688 135.457031 195.855469 134.371094 195.855469 C 133.28125 195.855469 132.320312 196.429688 131.78125 197.292969 L 131.773438 197.300781 L 126.273438 206.183594 C 125.417969 206.253906 124.546875 206.34375 123.691406 206.429688 L 116.570312 198.789062 C 116.007812 198.191406 115.214844 197.820312 114.339844 197.820312 C 113.039062 197.820312 111.925781 198.640625 111.484375 199.792969 L 111.476562 199.8125 L 107.828125 209.566406 C 106.984375 209.804688 106.15625 210.070312 105.316406 210.324219 L 96.867188 204.234375 C 96.382812 203.875 95.765625 203.671875 95.09375 203.671875 C 93.578125 203.671875 92.320312 204.773438 92.074219 206.210938 L 92.074219 206.226562 L 90.398438 216.519531 C 89.382812 217.03125 88.714844 217.402344 88.070312 217.753906 L 78.597656 213.425781 C 78.21875 213.25 77.789062 213.15625 77.328125 213.15625 C 75.644531 213.15625 74.28125 214.519531 74.28125 216.203125 C 74.28125 216.246094 74.28125 216.28125 74.28125 216.316406 L 74.648438 226.761719 C 73.972656 227.296875 73.300781 227.855469 72.640625 228.417969 L 62.480469 226.011719 C 62.269531 225.960938 62.03125 225.933594 61.785156 225.933594 C 60.101562 225.933594 58.726562 227.308594 58.726562 228.992188 C 58.726562 229.238281 58.753906 229.484375 58.804688 229.703125 L 58.804688 229.695312 L 61.191406 239.863281 C 60.636719 240.515625 60.082031 241.1875 59.554688 241.855469 L 49.113281 241.496094 C 49.078125 241.496094 49.039062 241.496094 48.996094 241.496094 C 47.3125 241.496094 45.949219 242.863281 45.949219 244.542969 C 45.949219 245.011719 46.042969 245.445312 46.230469 245.832031 L 46.222656 245.8125 L 50.546875 255.304688 C 50.335938 255.65625 49.921875 256.414062 49.527344 257.171875 L 49.3125 257.613281 L 39.03125 259.277344 C 37.566406 259.535156 36.472656 260.792969 36.472656 262.300781 C 36.472656 262.972656 36.6875 263.589844 37.046875 264.089844 L 37.046875 264.082031 L 43.128906 272.53125 C 42.863281 273.371094 42.609375 274.199219 42.359375 275.054688 L 32.613281 278.703125 C 31.453125 279.160156 30.640625 280.269531 30.640625 281.566406 C 30.640625 282.4375 31.011719 283.230469 31.59375 283.785156 L 39.222656 290.898438 C 39.152344 291.410156 39.074219 292.289062 38.996094 293.191406 L 38.976562 293.480469 L 30.101562 298.980469 C 29.210938 299.535156 28.632812 300.484375 28.632812 301.585938 C 28.632812 302.6875 29.210938 303.640625 30.085938 304.179688 Z M 88.910156 372.351562 L 88.863281 372.359375 C 88.476562 372.449219 88.011719 372.503906 87.542969 372.503906 C 84.070312 372.503906 81.25 369.683594 81.25 366.210938 C 81.25 363.203125 83.355469 360.683594 86.1875 360.058594 L 86.230469 360.050781 C 86.617188 359.960938 87.085938 359.910156 87.550781 359.910156 C 91.023438 359.910156 93.84375 362.730469 93.84375 366.199219 C 93.84375 369.207031 91.738281 371.726562 88.910156 372.351562 Z M 179.21875 372.652344 L 179.246094 372.660156 C 179.238281 372.660156 179.226562 372.652344 179.21875 372.652344 Z M 180.550781 372.792969 C 180.089844 372.792969 179.640625 372.738281 179.210938 372.644531 C 176.363281 372 174.265625 369.503906 174.265625 366.5 C 174.265625 363.027344 177.085938 360.207031 180.558594 360.207031 C 181.007812 360.207031 181.457031 360.261719 181.890625 360.347656 C 184.746094 360.992188 186.84375 363.496094 186.84375 366.5 C 186.832031 369.972656 184.011719 372.792969 180.550781 372.792969 Z M 196.660156 346.707031 C 194.367188 349.808594 192.023438 352.550781 189.503906 355.105469 L 176.222656 352.25 L 176.230469 352.257812 C 175.871094 352.179688 175.457031 352.136719 175.023438 352.136719 C 172.285156 352.136719 169.992188 354.066406 169.4375 356.628906 L 169.429688 356.664062 L 166.28125 371.375 C 156.5625 375.789062 145.765625 378.246094 134.390625 378.246094 C 134.355469 378.246094 134.320312 378.246094 134.277344 378.246094 C 122.679688 378.246094 111.6875 375.65625 101.820312 371.066406 L 98.671875 356.367188 C 98.109375 353.757812 95.816406 351.835938 93.085938 351.835938 C 92.652344 351.835938 92.238281 351.878906 91.835938 351.96875 L 91.871094 351.960938 L 78.890625 354.746094 C 76.554688 352.339844 74.351562 349.757812 72.324219 347.035156 L 72.183594 346.832031 L 135.339844 346.832031 C 136.054688 346.832031 136.539062 346.707031 136.539062 346.054688 L 136.539062 323.699219 C 136.539062 323.046875 136.0625 322.921875 135.339844 322.921875 L 116.863281 322.921875 L 116.863281 308.753906 L 136.847656 308.753906 C 138.664062 308.753906 146.59375 309.273438 149.132812 319.40625 C 149.925781 322.515625 151.664062 332.667969 152.859375 335.921875 C 154.050781 339.5625 158.878906 346.839844 164.035156 346.839844 L 195.511719 346.839844 C 195.917969 346.832031 196.316406 346.796875 196.703125 346.714844 Z M 116.886719 287.8125 L 116.886719 273.253906 L 142.972656 273.253906 C 144.320312 273.253906 152.480469 274.816406 152.480469 280.921875 C 152.480469 285.988281 146.214844 287.8125 141.070312 287.8125 Z M 203.199219 275.449219 C 204.609375 272.269531 208.316406 270.839844 211.480469 272.25 C 213.710938 273.246094 215.226562 275.457031 215.226562 278.003906 C 215.226562 281.476562 212.40625 284.296875 208.933594 284.296875 C 205.460938 284.296875 202.644531 281.476562 202.644531 278.003906 C 202.652344 277.089844 202.855469 276.226562 203.199219 275.449219 Z M 129.726562 216.265625 L 129.726562 216.28125 C 130.855469 215.207031 132.378906 214.539062 134.0625 214.539062 C 137.535156 214.539062 140.347656 217.347656 140.347656 220.820312 C 140.347656 222.609375 139.597656 224.222656 138.398438 225.367188 C 137.308594 226.3125 135.871094 226.894531 134.285156 226.894531 C 130.8125 226.894531 127.992188 224.074219 127.992188 220.601562 C 127.992188 218.925781 128.652344 217.402344 129.726562 216.265625 Z M 119.558594 224.988281 L 120.050781 224.910156 L 129.71875 235.0625 C 130.757812 236.164062 132.222656 236.84375 133.859375 236.84375 C 135.394531 236.84375 136.785156 236.234375 137.816406 235.257812 L 148.632812 224.902344 C 171.4375 229.28125 190.332031 243.1875 201.347656 262.230469 L 201.542969 262.609375 L 194.140625 279.34375 C 193.832031 280.03125 193.644531 280.824219 193.644531 281.664062 C 193.644531 283.980469 195.027344 285.988281 197.011719 286.886719 L 197.046875 286.90625 L 211.304688 293.242188 C 211.550781 295.78125 211.683594 298.328125 211.683594 300.925781 L 211.703125 300.925781 C 211.703125 302.855469 211.632812 304.769531 211.492188 306.664062 L 203.558594 306.664062 C 202.765625 306.664062 202.441406 307.183594 202.441406 307.96875 L 202.441406 311.609375 C 202.441406 320.183594 197.601562 322.050781 193.371094 322.527344 C 189.335938 322.984375 184.867188 320.84375 184.3125 318.367188 C 181.933594 304.980469 177.96875 302.117188 171.710938 297.179688 C 179.484375 292.246094 187.566406 284.957031 187.566406 275.210938 C 187.566406 264.691406 180.347656 258.054688 175.429688 254.800781 C 168.53125 250.246094 160.898438 249.339844 158.835938 249.339844 L 76.808594 249.339844 C 87.878906 236.984375 102.734375 228.257812 119.558594 224.988281 Z M 73.972656 278.984375 L 73.988281 279.019531 L 71.203125 272.726562 L 82.160156 272.726562 L 82.160156 322.121094 L 60.054688 322.121094 C 58.179688 315.785156 57.105469 308.488281 57.105469 300.953125 C 57.105469 298.125 57.273438 295.347656 57.570312 292.597656 L 71.070312 286.597656 C 73.097656 285.691406 74.484375 283.679688 74.484375 281.355469 C 74.472656 280.507812 74.296875 279.714844 73.972656 278.984375 Z M 59.238281 271.574219 C 61.714844 271.574219 63.855469 273.007812 64.886719 275.097656 L 64.902344 275.132812 L 64.902344 275.140625 C 65.300781 275.945312 65.527344 276.878906 65.527344 277.875 C 65.527344 281.34375 62.710938 284.164062 59.238281 284.164062 C 56.609375 284.164062 54.371094 282.570312 53.429688 280.277344 L 53.410156 280.234375 C 53.121094 279.53125 52.953125 278.71875 52.953125 277.863281 C 52.953125 274.390625 55.765625 271.574219 59.238281 271.574219 Z M 59.238281 271.574219 " fill-opacity="1" fill-rule="nonzero"/></g><g fill="#000000" fill-opacity="1"><g transform="translate(248.22355, 342.851785)"><g><path d="M 48.9375 -58.171875 L 48.9375 -20.65625 C 48.9375 -13.507812 47.007812 -8.101562 43.15625 -4.4375 C 39.300781 -0.769531 33.660156 1.0625 26.234375 1.0625 C 18.804688 1.0625 13.164062 -0.769531 9.3125 -4.4375 C 5.457031 -8.101562 3.53125 -13.507812 3.53125 -20.65625 L 3.53125 -58.171875 L 16.78125 -58.171875 L 16.78125 -24.546875 C 16.78125 -19.835938 17.519531 -16.566406 19 -14.734375 C 20.476562 -12.898438 22.882812 -11.984375 26.21875 -11.984375 C 29.5625 -11.984375 31.972656 -12.898438 33.453125 -14.734375 C 34.941406 -16.566406 35.6875 -19.835938 35.6875 -24.546875 L 35.6875 -58.171875 Z M 48.9375 -58.171875 "/></g></g></g><g fill="#000000" fill-opacity="1"><g transform="translate(300.679117, 342.851785)"><g><path d="M 25.671875 -59.234375 C 28.816406 -59.234375 31.894531 -58.773438 34.90625 -57.859375 C 37.914062 -56.941406 40.148438 -56.035156 41.609375 -55.140625 L 43.71875 -53.734375 L 38.359375 -43.15625 C 37.929688 -43.4375 37.34375 -43.800781 36.59375 -44.25 C 35.84375 -44.695312 34.429688 -45.296875 32.359375 -46.046875 C 30.296875 -46.796875 28.367188 -47.171875 26.578125 -47.171875 C 24.367188 -47.171875 22.664062 -46.703125 21.46875 -45.765625 C 20.269531 -44.828125 19.671875 -43.554688 19.671875 -41.953125 C 19.671875 -41.160156 19.953125 -40.421875 20.515625 -39.734375 C 21.078125 -39.054688 22.039062 -38.328125 23.40625 -37.546875 C 24.769531 -36.773438 25.96875 -36.148438 27 -35.671875 C 28.039062 -35.203125 29.640625 -34.5 31.796875 -33.5625 C 35.554688 -31.96875 38.765625 -29.796875 41.421875 -27.046875 C 44.078125 -24.296875 45.40625 -21.179688 45.40625 -17.703125 C 45.40625 -14.359375 44.804688 -11.441406 43.609375 -8.953125 C 42.410156 -6.460938 40.765625 -4.507812 38.671875 -3.09375 C 36.585938 -1.6875 34.273438 -0.644531 31.734375 0.03125 C 29.191406 0.71875 26.441406 1.0625 23.484375 1.0625 C 20.941406 1.0625 18.445312 0.800781 16 0.28125 C 13.5625 -0.238281 11.519531 -0.882812 9.875 -1.65625 C 8.226562 -2.4375 6.742188 -3.203125 5.421875 -3.953125 C 4.109375 -4.703125 3.144531 -5.335938 2.53125 -5.859375 L 1.625 -6.625 L 8.25 -17.765625 C 8.8125 -17.296875 9.585938 -16.695312 10.578125 -15.96875 C 11.566406 -15.238281 13.316406 -14.265625 15.828125 -13.046875 C 18.347656 -11.828125 20.570312 -11.21875 22.5 -11.21875 C 28.09375 -11.21875 30.890625 -13.117188 30.890625 -16.921875 C 30.890625 -17.722656 30.6875 -18.460938 30.28125 -19.140625 C 29.882812 -19.828125 29.179688 -20.507812 28.171875 -21.1875 C 27.160156 -21.875 26.265625 -22.414062 25.484375 -22.8125 C 24.710938 -23.207031 23.445312 -23.816406 21.6875 -24.640625 C 19.925781 -25.460938 18.617188 -26.085938 17.765625 -26.515625 C 14.242188 -28.253906 11.519531 -30.425781 9.59375 -33.03125 C 7.664062 -35.644531 6.703125 -38.457031 6.703125 -41.46875 C 6.703125 -46.6875 8.628906 -50.953125 12.484375 -54.265625 C 16.335938 -57.578125 20.734375 -59.234375 25.671875 -59.234375 Z M 25.671875 -59.234375 "/></g></g></g><g fill="#000000" fill-opacity="1"><g transform="translate(348.058345, 342.851785)"><g><path d="M 0.5625 -46.546875 L 0.5625 -58.171875 L 41.46875 -58.171875 L 41.46875 -46.546875 L 27.640625 -46.546875 L 27.640625 0 L 14.390625 0 L 14.390625 -46.546875 Z M 0.5625 -46.546875 "/></g></g></g><g fill="#000000" fill-opacity="1"><g transform="translate(390.079207, 342.851785)"><g><path d="M 17.484375 -58.171875 L 17.484375 -11.640625 L 37.515625 -11.640625 L 37.515625 0 L 4.234375 0 L 4.234375 -58.171875 Z M 17.484375 -58.171875 "/></g></g></g><g fill="#000000" fill-opacity="1"><g transform="translate(429.914418, 342.851785)"><g><path d="M 33.78125 -58.171875 L 57.265625 0 L 43.015625 0 L 38.71875 -11.640625 L 16.578125 -11.640625 L 12.265625 0 L -1.96875 0 L 21.5 -58.171875 Z M 34.203125 -23.265625 L 27.71875 -40.1875 L 27.578125 -40.1875 L 21.078125 -23.265625 Z M 34.203125 -23.265625 "/></g></g></g><g fill="#000000" fill-opacity="1"><g transform="translate(485.190167, 342.851785)"><g><path d="M 4.234375 -58.171875 L 22.28125 -58.171875 C 27.738281 -58.171875 32.085938 -57.003906 35.328125 -54.671875 C 38.566406 -52.347656 40.1875 -48.578125 40.1875 -43.359375 C 40.1875 -37.535156 37.769531 -33.378906 32.9375 -30.890625 C 41.207031 -29.429688 45.34375 -24.539062 45.34375 -16.21875 C 45.34375 -11.332031 43.648438 -7.40625 40.265625 -4.4375 C 36.878906 -1.476562 32.222656 0 26.296875 0 L 4.234375 0 Z M 17.484375 -35.40625 L 18.546875 -35.40625 C 21.503906 -35.40625 23.710938 -35.921875 25.171875 -36.953125 C 26.628906 -37.984375 27.359375 -39.675781 27.359375 -42.03125 C 27.359375 -45.976562 24.421875 -47.953125 18.546875 -47.953125 L 17.484375 -47.953125 Z M 17.484375 -10.21875 L 21.640625 -10.21875 C 28.128906 -10.21875 31.375 -12.382812 31.375 -16.71875 C 31.375 -19.300781 30.5625 -21.15625 28.9375 -22.28125 C 27.320312 -23.40625 24.890625 -23.96875 21.640625 -23.96875 L 17.484375 -23.96875 Z M 17.484375 -10.21875 "/></g></g></g><g fill="#000000" fill-opacity="1"><g transform="translate(532.146365, 342.851785)"><g><path d="M 25.671875 -59.234375 C 28.816406 -59.234375 31.894531 -58.773438 34.90625 -57.859375 C 37.914062 -56.941406 40.148438 -56.035156 41.609375 -55.140625 L 43.71875 -53.734375 L 38.359375 -43.15625 C 37.929688 -43.4375 37.34375 -43.800781 36.59375 -44.25 C 35.84375 -44.695312 34.429688 -45.296875 32.359375 -46.046875 C 30.296875 -46.796875 28.367188 -47.171875 26.578125 -47.171875 C 24.367188 -47.171875 22.664062 -46.703125 21.46875 -45.765625 C 20.269531 -44.828125 19.671875 -43.554688 19.671875 -41.953125 C 19.671875 -41.160156 19.953125 -40.421875 20.515625 -39.734375 C 21.078125 -39.054688 22.039062 -38.328125 23.40625 -37.546875 C 24.769531 -36.773438 25.96875 -36.148438 27 -35.671875 C 28.039062 -35.203125 29.640625 -34.5 31.796875 -33.5625 C 35.554688 -31.96875 38.765625 -29.796875 41.421875 -27.046875 C 44.078125 -24.296875 45.40625 -21.179688 45.40625 -17.703125 C 45.40625 -14.359375 44.804688 -11.441406 43.609375 -8.953125 C 42.410156 -6.460938 40.765625 -4.507812 38.671875 -3.09375 C 36.585938 -1.6875 34.273438 -0.644531 31.734375 0.03125 C 29.191406 0.71875 26.441406 1.0625 23.484375 1.0625 C 20.941406 1.0625 18.445312 0.800781 16 0.28125 C 13.5625 -0.238281 11.519531 -0.882812 9.875 -1.65625 C 8.226562 -2.4375 6.742188 -3.203125 5.421875 -3.953125 C 4.109375 -4.703125 3.144531 -5.335938 2.53125 -5.859375 L 1.625 -6.625 L 8.25 -17.765625 C 8.8125 -17.296875 9.585938 -16.695312 10.578125 -15.96875 C 11.566406 -15.238281 13.316406 -14.265625 15.828125 -13.046875 C 18.347656 -11.828125 20.570312 -11.21875 22.5 -11.21875 C 28.09375 -11.21875 30.890625 -13.117188 30.890625 -16.921875 C 30.890625 -17.722656 30.6875 -18.460938 30.28125 -19.140625 C 29.882812 -19.828125 29.179688 -20.507812 28.171875 -21.1875 C 27.160156 -21.875 26.265625 -22.414062 25.484375 -22.8125 C 24.710938 -23.207031 23.445312 -23.816406 21.6875 -24.640625 C 19.925781 -25.460938 18.617188 -26.085938 17.765625 -26.515625 C 14.242188 -28.253906 11.519531 -30.425781 9.59375 -33.03125 C 7.664062 -35.644531 6.703125 -38.457031 6.703125 -41.46875 C 6.703125 -46.6875 8.628906 -50.953125 12.484375 -54.265625 C 16.335938 -57.578125 20.734375 -59.234375 25.671875 -59.234375 Z M 25.671875 -59.234375 "/></g></g></g></svg>